<?xml version="1.0" encoding="utf-8"?>
<COLLADA xmlns="http://www.collada.org/2005/11/COLLADASchema" version="1.4.1" xmlns:xsi="http://www.w3.org/2001/XMLSchema-instance">
  <asset>
    <contributor>
      <author>Blender User</author>
      <authoring_tool>Blender 4.5.4 LTS commit date:2025-10-27, commit time:12:46, hash:b3efe983cc58</authoring_tool>
    </contributor>
    <created>2025-11-12T20:42:43</created>
    <modified>2025-11-12T20:42:43</modified>
    <unit name="meter" meter="1"/>
    <up_axis>Z_UP</up_axis>
  </asset>
  <library_effects>
    <effect id="Floor-effect">
      <profile_COMMON>
        <technique sid="common">
          <lambert>
            <emission>
              <color sid="emission">0 0 0 1</color>
            </emission>
            <diffuse>
              <color sid="diffuse">0.8 0.8 0.8 1</color>
            </diffuse>
            <reflectivity>
              <float sid="specular">0.04571429</float>
            </reflectivity>
            <index_of_refraction>
              <float sid="ior">1</float>
            </index_of_refraction>
          </lambert>
        </technique>
      </profile_COMMON>
    </effect>
    <effect id="Material-effect">
      <profile_COMMON>
        <technique sid="common">
          <lambert>
            <emission>
              <color sid="emission">0 0 0 1</color>
            </emission>
            <diffuse>
              <color sid="diffuse">0.4735707 0.3954873 0.226847 1</color>
            </diffuse>
            <index_of_refraction>
              <float sid="ior">1.45</float>
            </index_of_refraction>
          </lambert>
        </technique>
      </profile_COMMON>
    </effect>
    <effect id="Wood-effect">
      <profile_COMMON>
        <newparam sid="wood_jpg-surface">
          <surface type="2D">
            <init_from>wood_jpg</init_from>
          </surface>
        </newparam>
        <newparam sid="wood_jpg-sampler">
          <sampler2D>
            <source>wood_jpg-surface</source>
          </sampler2D>
        </newparam>
        <technique sid="common">
          <lambert>
            <emission>
              <color sid="emission">0 0 0 1</color>
            </emission>
            <diffuse>
              <texture texture="wood_jpg-sampler" texcoord="Cube_021-mesh-map-0"/>
            </diffuse>
            <reflectivity>
              <float sid="specular">0.4114286</float>
            </reflectivity>
            <index_of_refraction>
              <float sid="ior">1.45</float>
            </index_of_refraction>
          </lambert>
        </technique>
      </profile_COMMON>
    </effect>
  </library_effects>
  <library_images>
    <image id="wood_jpg" name="wood_jpg">
      <init_from>wood.jpg</init_from>
    </image>
  </library_images>
  <library_materials>
    <material id="Floor-material" name="Floor">
      <instance_effect url="#Floor-effect"/>
    </material>
    <material id="Material-material" name="Material">
      <instance_effect url="#Material-effect"/>
    </material>
    <material id="Wood-material" name="Wood">
      <instance_effect url="#Wood-effect"/>
    </material>
  </library_materials>
  <library_geometries>
    <geometry id="Plane_001-mesh" name="Plane.001">
      <mesh>
        <source id="Plane_001-mesh-positions">
          <float_array id="Plane_001-mesh-positions-array" count="48">0.3107426 2.070041 0.00999999 4.81858 -1 0.00999999 8.476735 6.056387 0.00999999 0.3107426 6.056387 0.00999999 -1 2.070041 0.00999999 -1 -1 0.00999999 8.442343 -3.398657 0.00999999 4.81858 -3.398657 0.00999999 8.476735 6.056387 -0.03999996 0.3107426 6.056387 -0.03999996 0.3107426 2.070041 -0.03999996 -1 2.070041 -0.03999996 -1 -1 -0.03999996 4.81858 -1 -0.03999996 8.442343 -3.398657 -0.03999996 4.81858 -3.398657 -0.03999996</float_array>
          <technique_common>
            <accessor source="#Plane_001-mesh-positions-array" count="16" stride="3">
              <param name="X" type="float"/>
              <param name="Y" type="float"/>
              <param name="Z" type="float"/>
            </accessor>
          </technique_common>
        </source>
        <source id="Plane_001-mesh-normals">
          <float_array id="Plane_001-mesh-normals-array" count="84">0 0 1 0 0 1 0 0 1 0 0 1 0 0 1 0 0 1 0 0 -1 0 0 -1 0 0 -1 0 0 -1 0 0 -1 0 0 -1 0 -1 0 0.9999934 -0.003637313 0 -1 0 0 -1 0 0 0 -1 0 -1 0 0 0 1 0 0 1 0 0 -1 0 0.9999934 -0.003637313 0 -1 0 0 -1 0 0 0 -1 0 -1 0 0 0 1 0 0 1 0</float_array>
          <technique_common>
            <accessor source="#Plane_001-mesh-normals-array" count="28" stride="3">
              <param name="X" type="float"/>
              <param name="Y" type="float"/>
              <param name="Z" type="float"/>
            </accessor>
          </technique_common>
        </source>
        <source id="Plane_001-mesh-map-0">
          <float_array id="Plane_001-mesh-map-0-array" count="168">0 0 0 0 0 0 0 0 0 0 0 0 0 0 0 0 0 0 0 0 0 0 0 0 0 0 0 0 0 0 0 0 0 0 0 0 0 0 0 0 0 0 0 0 0 0 0 0 0 0 0 0 0 0 0 0 0 0 0 0 0 0 0 0 0 0 0 0 0 0 0 0 0 0 0 0 0 0 0 0 0 0 0 0 0 0 0 0 0 0 0 0 0 0 0 0 0 0 0 0 0 0 0 0 0 0 0 0 0 0 0 0 0 0 0 0 0 0 0 0 0 0 0 0 0 0 0 0 0 0 0 0 0 0 0 0 0 0 0 0 0 0 0 0 0 0 0 0 0 0 0 0 0 0 0 0 0 0 0 0 0 0 0 0 0 0 0 0</float_array>
          <technique_common>
            <accessor source="#Plane_001-mesh-map-0-array" count="84" stride="2">
              <param name="S" type="float"/>
              <param name="T" type="float"/>
            </accessor>
          </technique_common>
        </source>
        <vertices id="Plane_001-mesh-vertices">
          <input semantic="POSITION" source="#Plane_001-mesh-positions"/>
        </vertices>
        <triangles material="Floor-material" count="28">
          <input semantic="VERTEX" source="#Plane_001-mesh-vertices" offset="0"/>
          <input semantic="NORMAL" source="#Plane_001-mesh-normals" offset="1"/>
          <input semantic="TEXCOORD" source="#Plane_001-mesh-map-0" offset="2" set="0"/>
          <p>3 0 0 0 0 1 2 0 2 2 1 3 0 1 4 1 1 5 6 2 6 2 2 7 1 2 8 4 3 9 5 3 10 0 3 11 6 4 12 1 4 13 7 4 14 5 5 15 1 5 16 0 5 17 9 6 18 8 6 19 10 6 20 8 7 21 13 7 22 10 7 23 14 8 24 13 8 25 8 8 26 11 9 27 10 9 28 12 9 29 14 10 30 15 10 31 13 10 32 12 11 33 10 11 34 13 11 35 15 12 36 6 12 37 7 12 38 14 13 39 2 13 40 6 13 41 11 14 42 5 14 43 4 14 44 9 15 45 0 15 46 3 15 47 12 16 48 1 16 49 5 16 50 13 17 51 7 17 52 1 17 53 10 18 54 4 18 55 0 18 56 8 19 57 3 19 58 2 19 59 15 20 60 14 20 61 6 20 62 14 21 63 8 21 64 2 21 65 11 22 66 12 22 67 5 22 68 9 23 69 10 23 70 0 23 71 12 24 72 13 24 73 1 24 74 13 25 75 15 25 76 7 25 77 10 26 78 11 26 79 4 26 80 8 27 81 9 27 82 3 27 83</p>
        </triangles>
      </mesh>
    </geometry>
    <geometry id="Cube_007-mesh" name="Cube.007">
      <mesh>
        <source id="Cube_007-mesh-positions">
          <float_array id="Cube_007-mesh-positions-array" count="696">-1 -1 -1 -1 -1 1 -1 1 -1 -1 1 1 1 -1 -1 1 -1 1 1 1 -1 1 1 1 0.6347116 -0.9499998 -1 0.6347116 -0.9499998 1 0.5930449 -0.9499998 -1 0.5930449 -0.9499998 1 0.6347116 25.05 -1 0.6347116 25.05 1 0.5930449 25.05 -1 0.5930449 25.05 1 0.3396718 25.048 0.6000001 0.3396718 25.048 1 0.3396718 23.048 0.6000001 0.3396718 23.048 1 0.1313384 25.048 0.6000001 0.1313384 25.048 1 0.1313384 23.048 0.6000001 0.1313384 23.048 1 0.1313382 25.048 -1 0.1313382 25.048 1 0.1313382 23.048 -1 0.1313382 23.048 1 -0.1153742 25.048 -1 -0.1153742 25.048 1 -0.1153742 23.048 -1 -0.1153742 23.048 1 0.6346271 25.048 -1 0.6346271 25.048 1 0.6346271 23.048 -1 0.6346271 23.048 1 0.3396708 25.048 -1 0.3396708 25.048 1 0.3396708 23.048 -1 0.3396708 23.048 1 -0.07382404 -0.9968987 -1 -0.07382404 -0.9968987 1 -0.1154907 -0.9968987 -1 -0.1154907 -0.9968987 1 -0.07382404 25.0523 -1 -0.07382404 25.0523 1 -0.1154907 25.0523 -1 -0.1154907 25.0523 1 -0.9851065 -0.9997006 -1 -0.9851065 -0.9997006 1 -1.026773 -0.9997006 -1 -1.026773 -0.9997006 1 -0.9851065 37.0003 -1 -0.9851065 37.0003 1 -1.026773 37.0003 -1 -1.026773 37.0003 1 -1.026748 35.0059 -1 -1.026748 35.0059 1 -1.026748 37.0059 -1 -1.026748 37.0059 1 -0.9744132 35.0059 -1 -0.9744132 35.0059 1 -0.9744132 37.0059 -1 -0.9744132 37.0059 1 -0.5364961 35.0059 -1 -0.5364961 35.0059 1 -0.5364961 37.0059 -1 -0.5364961 37.0059 1 0.1397353 35.0059 -1 0.1397353 35.0059 1 0.1397353 37.0059 -1 0.1397353 37.0059 1 -0.9744119 35.0059 0.6000001 -0.9744119 35.0059 1 -0.9744119 37.0059 0.6000001 -0.9744119 37.0059 1 -0.5364951 35.0059 0.6000001 -0.5364951 35.0059 1 -0.5364951 37.0059 0.6000001 -0.5364951 37.0059 1 -0.9744119 35.0059 -1 -0.9744119 35.0059 -0.44 -0.9744119 37.0059 -1 -0.9744119 37.0059 -0.44 -0.5364951 35.0059 -1 -0.5364951 35.0059 -0.44 -0.5364951 37.0059 -1 -0.5364951 37.0059 -0.44 -0.07469934 25.0206 0.6000001 -0.07469934 25.0206 1 -0.116366 25.0206 0.6000001 -0.116366 25.0206 1 -0.07469934 35.0206 0.6000001 -0.07469934 35.0206 1 -0.116366 35.0206 0.6000001 -0.116366 35.0206 1 0.1489936 83.0242 -1 0.1489936 83.0242 1 0.1489936 81.0242 -1 0.1489936 81.0242 1 0.09867507 83.0242 -1 0.09867507 83.0242 1 0.09867507 81.0242 -1 0.09867507 81.0242 1 0.9211562 81.0242 -1 0.9211562 81.0242 1 0.9211562 83.0242 -1 0.9211562 83.0242 1 0.9736751 81.0242 -1 0.9736751 81.0242 1 0.9736753 83.0242 -1 0.9736753 83.0242 1 0.9211573 83.0242 0.6000001 0.9211573 83.0242 1 0.9211573 81.0242 0.6000001 0.9211573 81.0242 1 0.1489945 83.0242 0.6000001 0.1489945 83.0242 1 0.1489945 81.0242 0.6000001 0.1489945 81.0242 1 0.9211573 83.0242 -1 0.9211573 83.0242 -0.44 0.9211573 81.0242 -1 0.9211573 81.0242 -0.44 0.1489945 83.0242 -1 0.1489945 83.0242 -0.44 0.1489945 81.0242 -1 0.1489945 81.0242 -0.44 0.1400676 95.02291 -1 0.1400676 95.02291 1 0.1400676 93.02291 -1 0.1400676 93.02291 1 -0.5265993 95.02291 -1 -0.5265993 95.02291 1 -0.5265993 93.02291 -1 -0.5265993 93.02291 1 -0.5266618 93.36074 -1 -0.5266618 93.36074 1 -0.4849951 93.36074 -1 -0.4849951 93.36074 1 -0.5266618 80.63384 -1 -0.5266618 80.63384 1 -0.4849951 80.63384 -1 -0.4849951 80.63384 1 -0.5266618 83.88597 -1 -0.5266618 83.88597 -0.44 -0.4849951 83.88597 -1 -0.4849951 83.88597 -0.44 -0.5266618 36.62597 -1 -0.5266618 36.62597 -0.44 -0.4849951 36.62597 -1 -0.4849951 36.62597 -0.44 -0.5266618 67.12045 -0.4399999 -0.5266618 67.12045 1 -0.4849951 67.12045 -0.4399999 -0.4849951 67.12045 1 -0.5266618 55.66535 -0.4399999 -0.5266618 55.66535 1 -0.4849951 55.66535 -0.4399999 -0.4849951 55.66535 1 -0.5266618 80.89321 0.76 -0.5266618 80.89321 1 -0.4849951 80.89321 0.76 -0.4849951 80.89321 1 -0.5266618 66.89321 0.76 -0.5266618 66.89321 1 -0.4849951 66.89321 0.76 -0.4849951 66.89321 1 -0.5266618 55.89439 0.76 -0.5266618 55.89439 1 -0.4849951 55.89439 0.76 -0.4849951 55.89439 1 -0.5266618 47.89439 0.76 -0.5266618 47.89439 1 -0.4849951 47.89439 0.76 -0.4849951 47.89439 1 -0.5266618 48.23081 -0.4399999 -0.5266618 48.23081 1 -0.4849951 48.23081 -0.4399999 -0.4849951 48.23081 1 -0.5266618 36.77571 -0.4399999 -0.5266618 36.77571 1 -0.4849951 36.77571 -0.4399999 -0.4849951 36.77571 1 0.0985738 94.02161 -1 0.0985738 94.02161 1 0.1402405 94.02161 -1 0.1402405 94.02161 1 0.0985738 82.02161 -1 0.0985738 82.02161 1 0.1402405 82.02161 -1 0.1402405 82.02161 1 0.1398175 35.0082 -1 0.1398175 35.0082 1 0.09815084 35.0082 -1 0.09815084 35.0082 1 0.1398175 43.0082 -1 0.1398175 43.0082 1 0.09815084 43.0082 -1 0.09815084 43.0082 1 0.9740347 0.8699322 -1 0.9740347 0.8699322 1 0.932368 0.8699322 -1 0.932368 0.8699322 1 0.9740346 55.09003 -1 0.9740346 55.09003 1 0.9323679 55.09003 -1 0.9323679 55.09003 1 0.9740346 79.45207 -1 0.9740346 79.45207 1 0.9323679 79.45207 -1 0.9323679 79.45207 1 0.9740346 81.96623 -1 0.9740346 81.96623 1 0.9323679 81.96623 -1 0.9323679 81.96623 1 0.9740346 54.02561 0.6 0.9740346 54.02561 1 0.9323679 54.02561 0.6 0.9323679 54.02561 1 0.9740346 79.87862 0.6 0.9740346 79.87862 1 0.9323679 79.87862 0.6 0.9323679 79.87862 1 0.9740346 52.7326 -1 0.9740346 52.7326 -0.4400001 0.9323679 52.7326 -1 0.9323679 52.7326 -0.4400001 0.9740346 80.0054 -1 0.9740346 80.0054 -0.4400001 0.9323679 80.0054 -1 0.9323679 80.0054 -0.4400001</float_array>
          <technique_common>
            <accessor source="#Cube_007-mesh-positions-array" count="232" stride="3">
              <param name="X" type="float"/>
              <param name="Y" type="float"/>
              <param name="Z" type="float"/>
            </accessor>
          </technique_common>
        </source>
        <source id="Cube_007-mesh-normals">
          <float_array id="Cube_007-mesh-normals-array" count="30">-1 0 0 0 1 0 1 0 0 0 -1 0 0 0 -1 0 0 1 1 0 0 -1 0 0 1 0 0 1 -1.19209e-7 0</float_array>
          <technique_common>
            <accessor source="#Cube_007-mesh-normals-array" count="10" stride="3">
              <param name="X" type="float"/>
              <param name="Y" type="float"/>
              <param name="Z" type="float"/>
            </accessor>
          </technique_common>
        </source>
        <source id="Cube_007-mesh-map-0">
          <float_array id="Cube_007-mesh-map-0-array" count="2088">0.625 0 0.375 0.25 0.375 0 0.625 0.25 0.375 0.5 0.375 0.25 0.625 0.5 0.375 0.75 0.375 0.5 0.625 0.75 0.375 1 0.375 0.75 0.375 0.5 0.125 0.75 0.125 0.5 0.8750001 0.5 0.625 0.75 0.625 0.5 0.625 0 0.375 0.25 0.375 0 0.625 0.25 0.375 0.5 0.375 0.25 0.625 0.5 0.375 0.75 0.375 0.5 0.625 0.75 0.375 1 0.375 0.75 0.375 0.5 0.125 0.75 0.125 0.5 0.8750001 0.5 0.625 0.75 0.625 0.5 0.625 0 0.375 0.25 0.375 0 0.625 0.25 0.375 0.5 0.375 0.25 0.625 0.5 0.375 0.75 0.375 0.5 0.625 0.75 0.375 1 0.375 0.75 0.375 0.5 0.125 0.75 0.125 0.5 0.8750001 0.5 0.625 0.75 0.625 0.5 0.625 0 0.375 0.25 0.375 0 0.625 0.25 0.375 0.5 0.375 0.25 0.625 0.5 0.375 0.75 0.375 0.5 0.625 0.75 0.375 1 0.375 0.75 0.125 0.5 0.375 0.75 0.125 0.75 0.8750001 0.5 0.625 0.75 0.625 0.5 0.625 0 0.375 0.25 0.375 0 0.625 0.25 0.375 0.5 0.375 0.25 0.625 0.5 0.375 0.75 0.375 0.5 0.625 0.75 0.375 1 0.375 0.75 0.125 0.5 0.375 0.75 0.125 0.75 0.8750001 0.5 0.625 0.75 0.625 0.5 0.625 0 0.375 0.25 0.375 0 0.625 0.25 0.375 0.5 0.375 0.25 0.625 0.5 0.375 0.75 0.375 0.5 0.625 0.75 0.375 1 0.375 0.75 0.375 0.5 0.125 0.75 0.125 0.5 0.8750001 0.5 0.625 0.75 0.625 0.5 0.625 0 0.375 0.25 0.375 0 0.625 0.25 0.375 0.5 0.375 0.25 0.625 0.5 0.375 0.75 0.375 0.5 0.625 0.75 0.375 1 0.375 0.75 0.375 0.5 0.125 0.75 0.125 0.5 0.8750001 0.5 0.625 0.75 0.625 0.5 0.625 0 0.375 0.25 0.375 0 0.625 0.25 0.375 0.5 0.375 0.25 0.625 0.5 0.375 0.75 0.375 0.5 0.625 0.75 0.375 1 0.375 0.75 0.375 0.5 0.125 0.75 0.125 0.5 0.8750001 0.5 0.625 0.75 0.625 0.5 0.625 0 0.375 0.25 0.375 0 0.625 0.25 0.375 0.5 0.375 0.25 0.625 0.5 0.375 0.75 0.375 0.5 0.625 0.75 0.375 1 0.375 0.75 0.375 0.5 0.125 0.75 0.125 0.5 0.8750001 0.5 0.625 0.75 0.625 0.5 0.625 0 0.375 0.25 0.375 0 0.625 0.25 0.375 0.5 0.375 0.25 0.625 0.5 0.375 0.75 0.375 0.5 0.625 0.75 0.375 1 0.375 0.75 0.375 0.5 0.125 0.75 0.125 0.5 0.8750001 0.5 0.625 0.75 0.625 0.5 0.625 0 0.375 0.25 0.375 0 0.625 0.25 0.375 0.5 0.375 0.25 0.625 0.5 0.375 0.75 0.375 0.5 0.625 0.75 0.375 1 0.375 0.75 0.375 0.5 0.125 0.75 0.125 0.5 0.8750001 0.5 0.625 0.75 0.625 0.5 0.625 0 0.375 0.25 0.375 0 0.625 0.25 0.375 0.5 0.375 0.25 0.625 0.5 0.375 0.75 0.375 0.5 0.625 0.75 0.375 1 0.375 0.75 0.375 0.5 0.125 0.75 0.125 0.5 0.8750001 0.5 0.625 0.75 0.625 0.5 0.625 0 0.375 0.25 0.375 0 0.625 0.25 0.375 0.5 0.375 0.25 0.625 0.5 0.375 0.75 0.375 0.5 0.625 0.75 0.375 1 0.375 0.75 0.375 0.5 0.125 0.75 0.125 0.5 0.8750001 0.5 0.625 0.75 0.625 0.5 0.625 0 0.375 0.25 0.375 0 0.625 0.25 0.375 0.5 0.375 0.25 0.625 0.5 0.375 0.75 0.375 0.5 0.625 0.75 0.375 1 0.375 0.75 0.375 0.5 0.125 0.75 0.125 0.5 0.8750001 0.5 0.625 0.75 0.625 0.5 0.625 0 0.375 0.25 0.375 0 0.625 0.25 0.375 0.5 0.375 0.25 0.625 0.5 0.375 0.75 0.375 0.5 0.625 0.75 0.375 1 0.375 0.75 0.375 0.5 0.125 0.75 0.125 0.5 0.8750001 0.5 0.625 0.75 0.625 0.5 0.625 0 0.375 0.25 0.375 0 0.625 0.25 0.375 0.5 0.375 0.25 0.625 0.5 0.375 0.75 0.375 0.5 0.625 0.75 0.375 1 0.375 0.75 0.375 0.5 0.125 0.75 0.125 0.5 0.8750001 0.5 0.625 0.75 0.625 0.5 0.625 0 0.375 0.25 0.375 0 0.625 0.25 0.375 0.5 0.375 0.25 0.625 0.5 0.375 0.75 0.375 0.5 0.625 0.75 0.375 1 0.375 0.75 0.375 0.5 0.125 0.75 0.125 0.5 0.8750001 0.5 0.625 0.75 0.625 0.5 0.625 0 0.375 0.25 0.375 0 0.625 0.25 0.375 0.5 0.375 0.25 0.625 0.5 0.375 0.75 0.375 0.5 0.625 0.75 0.375 1 0.375 0.75 0.375 0.5 0.125 0.75 0.125 0.5 0.8750001 0.5 0.625 0.75 0.625 0.5 0.625 0 0.375 0.25 0.375 0 0.625 0.25 0.375 0.5 0.375 0.25 0.625 0.5 0.375 0.75 0.375 0.5 0.625 0.75 0.375 1 0.375 0.75 0.375 0.5 0.125 0.75 0.125 0.5 0.8750001 0.5 0.625 0.75 0.625 0.5 0.625 0 0.375 0.25 0.375 0 0.625 0.25 0.375 0.5 0.375 0.25 0.625 0.5 0.375 0.75 0.375 0.5 0.625 0.75 0.375 1 0.375 0.75 0.375 0.5 0.125 0.75 0.125 0.5 0.8750001 0.5 0.625 0.75 0.625 0.5 0.625 0 0.375 0.25 0.375 0 0.625 0.25 0.375 0.5 0.375 0.25 0.625 0.5 0.375 0.75 0.375 0.5 0.625 0.75 0.375 1 0.375 0.75 0.375 0.5 0.125 0.75 0.125 0.5 0.8750001 0.5 0.625 0.75 0.625 0.5 0.625 0 0.375 0.25 0.375 0 0.625 0.25 0.375 0.5 0.375 0.25 0.625 0.5 0.375 0.75 0.375 0.5 0.625 0.75 0.375 1 0.375 0.75 0.375 0.5 0.125 0.75 0.125 0.5 0.8750001 0.5 0.625 0.75 0.625 0.5 0.625 0 0.375 0.25 0.375 0 0.625 0.25 0.375 0.5 0.375 0.25 0.625 0.5 0.375 0.75 0.375 0.5 0.625 0.75 0.375 1 0.375 0.75 0.375 0.5 0.125 0.75 0.125 0.5 0.8750001 0.5 0.625 0.75 0.625 0.5 0.625 0 0.375 0.25 0.375 0 0.625 0.25 0.375 0.5 0.375 0.25 0.625 0.5 0.375 0.75 0.375 0.5 0.625 0.75 0.375 1 0.375 0.75 0.375 0.5 0.125 0.75 0.125 0.5 0.8750001 0.5 0.625 0.75 0.625 0.5 0.625 0 0.375 0.25 0.375 0 0.625 0.25 0.375 0.5 0.375 0.25 0.625 0.5 0.375 0.75 0.375 0.5 0.625 0.75 0.375 1 0.375 0.75 0.375 0.5 0.125 0.75 0.125 0.5 0.8750001 0.5 0.625 0.75 0.625 0.5 0.625 0 0.375 0.25 0.375 0 0.625 0.25 0.375 0.5 0.375 0.25 0.625 0.5 0.375 0.75 0.375 0.5 0.625 0.75 0.375 1 0.375 0.75 0.375 0.5 0.125 0.75 0.125 0.5 0.8750001 0.5 0.625 0.75 0.625 0.5 0.625 0 0.375 0.25 0.375 0 0.625 0.25 0.375 0.5 0.375 0.25 0.625 0.5 0.375 0.75 0.375 0.5 0.625 0.75 0.375 1 0.375 0.75 0.375 0.5 0.125 0.75 0.125 0.5 0.8750001 0.5 0.625 0.75 0.625 0.5 0.625 0 0.375 0.25 0.375 0 0.625 0.25 0.375 0.5 0.375 0.25 0.625 0.5 0.375 0.75 0.375 0.5 0.625 0.75 0.375 1 0.375 0.75 0.375 0.5 0.125 0.75 0.125 0.5 0.8750001 0.5 0.625 0.75 0.625 0.5 0.625 0 0.375 0.25 0.375 0 0.625 0.25 0.375 0.5 0.375 0.25 0.625 0.5 0.375 0.75 0.375 0.5 0.625 0.75 0.375 1 0.375 0.75 0.375 0.5 0.125 0.75 0.125 0.5 0.8750001 0.5 0.625 0.75 0.625 0.5 0.625 0 0.625 0.25 0.375 0.25 0.625 0.25 0.625 0.5 0.375 0.5 0.625 0.5 0.625 0.75 0.375 0.75 0.625 0.75 0.625 1 0.375 1 0.375 0.5 0.375 0.75 0.125 0.75 0.8750001 0.5 0.8750001 0.75 0.625 0.75 0.625 0 0.625 0.25 0.375 0.25 0.625 0.25 0.625 0.5 0.375 0.5 0.625 0.5 0.625 0.75 0.375 0.75 0.625 0.75 0.625 1 0.375 1 0.375 0.5 0.375 0.75 0.125 0.75 0.8750001 0.5 0.8750001 0.75 0.625 0.75 0.625 0 0.625 0.25 0.375 0.25 0.625 0.25 0.625 0.5 0.375 0.5 0.625 0.5 0.625 0.75 0.375 0.75 0.625 0.75 0.625 1 0.375 1 0.375 0.5 0.375 0.75 0.125 0.75 0.8750001 0.5 0.8750001 0.75 0.625 0.75 0.625 0 0.625 0.25 0.375 0.25 0.625 0.25 0.625 0.5 0.375 0.5 0.625 0.5 0.625 0.75 0.375 0.75 0.625 0.75 0.625 1 0.375 1 0.125 0.5 0.375 0.5 0.375 0.75 0.8750001 0.5 0.8750001 0.75 0.625 0.75 0.625 0 0.625 0.25 0.375 0.25 0.625 0.25 0.625 0.5 0.375 0.5 0.625 0.5 0.625 0.75 0.375 0.75 0.625 0.75 0.625 1 0.375 1 0.125 0.5 0.375 0.5 0.375 0.75 0.8750001 0.5 0.8750001 0.75 0.625 0.75 0.625 0 0.625 0.25 0.375 0.25 0.625 0.25 0.625 0.5 0.375 0.5 0.625 0.5 0.625 0.75 0.375 0.75 0.625 0.75 0.625 1 0.375 1 0.375 0.5 0.375 0.75 0.125 0.75 0.8750001 0.5 0.8750001 0.75 0.625 0.75 0.625 0 0.625 0.25 0.375 0.25 0.625 0.25 0.625 0.5 0.375 0.5 0.625 0.5 0.625 0.75 0.375 0.75 0.625 0.75 0.625 1 0.375 1 0.375 0.5 0.375 0.75 0.125 0.75 0.8750001 0.5 0.8750001 0.75 0.625 0.75 0.625 0 0.625 0.25 0.375 0.25 0.625 0.25 0.625 0.5 0.375 0.5 0.625 0.5 0.625 0.75 0.375 0.75 0.625 0.75 0.625 1 0.375 1 0.375 0.5 0.375 0.75 0.125 0.75 0.8750001 0.5 0.8750001 0.75 0.625 0.75 0.625 0 0.625 0.25 0.375 0.25 0.625 0.25 0.625 0.5 0.375 0.5 0.625 0.5 0.625 0.75 0.375 0.75 0.625 0.75 0.625 1 0.375 1 0.375 0.5 0.375 0.75 0.125 0.75 0.8750001 0.5 0.8750001 0.75 0.625 0.75 0.625 0 0.625 0.25 0.375 0.25 0.625 0.25 0.625 0.5 0.375 0.5 0.625 0.5 0.625 0.75 0.375 0.75 0.625 0.75 0.625 1 0.375 1 0.375 0.5 0.375 0.75 0.125 0.75 0.8750001 0.5 0.8750001 0.75 0.625 0.75 0.625 0 0.625 0.25 0.375 0.25 0.625 0.25 0.625 0.5 0.375 0.5 0.625 0.5 0.625 0.75 0.375 0.75 0.625 0.75 0.625 1 0.375 1 0.375 0.5 0.375 0.75 0.125 0.75 0.8750001 0.5 0.8750001 0.75 0.625 0.75 0.625 0 0.625 0.25 0.375 0.25 0.625 0.25 0.625 0.5 0.375 0.5 0.625 0.5 0.625 0.75 0.375 0.75 0.625 0.75 0.625 1 0.375 1 0.375 0.5 0.375 0.75 0.125 0.75 0.8750001 0.5 0.8750001 0.75 0.625 0.75 0.625 0 0.625 0.25 0.375 0.25 0.625 0.25 0.625 0.5 0.375 0.5 0.625 0.5 0.625 0.75 0.375 0.75 0.625 0.75 0.625 1 0.375 1 0.375 0.5 0.375 0.75 0.125 0.75 0.8750001 0.5 0.8750001 0.75 0.625 0.75 0.625 0 0.625 0.25 0.375 0.25 0.625 0.25 0.625 0.5 0.375 0.5 0.625 0.5 0.625 0.75 0.375 0.75 0.625 0.75 0.625 1 0.375 1 0.375 0.5 0.375 0.75 0.125 0.75 0.8750001 0.5 0.8750001 0.75 0.625 0.75 0.625 0 0.625 0.25 0.375 0.25 0.625 0.25 0.625 0.5 0.375 0.5 0.625 0.5 0.625 0.75 0.375 0.75 0.625 0.75 0.625 1 0.375 1 0.375 0.5 0.375 0.75 0.125 0.75 0.8750001 0.5 0.8750001 0.75 0.625 0.75 0.625 0 0.625 0.25 0.375 0.25 0.625 0.25 0.625 0.5 0.375 0.5 0.625 0.5 0.625 0.75 0.375 0.75 0.625 0.75 0.625 1 0.375 1 0.375 0.5 0.375 0.75 0.125 0.75 0.8750001 0.5 0.8750001 0.75 0.625 0.75 0.625 0 0.625 0.25 0.375 0.25 0.625 0.25 0.625 0.5 0.375 0.5 0.625 0.5 0.625 0.75 0.375 0.75 0.625 0.75 0.625 1 0.375 1 0.375 0.5 0.375 0.75 0.125 0.75 0.8750001 0.5 0.8750001 0.75 0.625 0.75 0.625 0 0.625 0.25 0.375 0.25 0.625 0.25 0.625 0.5 0.375 0.5 0.625 0.5 0.625 0.75 0.375 0.75 0.625 0.75 0.625 1 0.375 1 0.375 0.5 0.375 0.75 0.125 0.75 0.8750001 0.5 0.8750001 0.75 0.625 0.75 0.625 0 0.625 0.25 0.375 0.25 0.625 0.25 0.625 0.5 0.375 0.5 0.625 0.5 0.625 0.75 0.375 0.75 0.625 0.75 0.625 1 0.375 1 0.375 0.5 0.375 0.75 0.125 0.75 0.8750001 0.5 0.8750001 0.75 0.625 0.75 0.625 0 0.625 0.25 0.375 0.25 0.625 0.25 0.625 0.5 0.375 0.5 0.625 0.5 0.625 0.75 0.375 0.75 0.625 0.75 0.625 1 0.375 1 0.375 0.5 0.375 0.75 0.125 0.75 0.8750001 0.5 0.8750001 0.75 0.625 0.75 0.625 0 0.625 0.25 0.375 0.25 0.625 0.25 0.625 0.5 0.375 0.5 0.625 0.5 0.625 0.75 0.375 0.75 0.625 0.75 0.625 1 0.375 1 0.375 0.5 0.375 0.75 0.125 0.75 0.8750001 0.5 0.8750001 0.75 0.625 0.75 0.625 0 0.625 0.25 0.375 0.25 0.625 0.25 0.625 0.5 0.375 0.5 0.625 0.5 0.625 0.75 0.375 0.75 0.625 0.75 0.625 1 0.375 1 0.375 0.5 0.375 0.75 0.125 0.75 0.8750001 0.5 0.8750001 0.75 0.625 0.75 0.625 0 0.625 0.25 0.375 0.25 0.625 0.25 0.625 0.5 0.375 0.5 0.625 0.5 0.625 0.75 0.375 0.75 0.625 0.75 0.625 1 0.375 1 0.375 0.5 0.375 0.75 0.125 0.75 0.8750001 0.5 0.8750001 0.75 0.625 0.75 0.625 0 0.625 0.25 0.375 0.25 0.625 0.25 0.625 0.5 0.375 0.5 0.625 0.5 0.625 0.75 0.375 0.75 0.625 0.75 0.625 1 0.375 1 0.375 0.5 0.375 0.75 0.125 0.75 0.8750001 0.5 0.8750001 0.75 0.625 0.75 0.625 0 0.625 0.25 0.375 0.25 0.625 0.25 0.625 0.5 0.375 0.5 0.625 0.5 0.625 0.75 0.375 0.75 0.625 0.75 0.625 1 0.375 1 0.375 0.5 0.375 0.75 0.125 0.75 0.8750001 0.5 0.8750001 0.75 0.625 0.75 0.625 0 0.625 0.25 0.375 0.25 0.625 0.25 0.625 0.5 0.375 0.5 0.625 0.5 0.625 0.75 0.375 0.75 0.625 0.75 0.625 1 0.375 1 0.375 0.5 0.375 0.75 0.125 0.75 0.8750001 0.5 0.8750001 0.75 0.625 0.75 0.625 0 0.625 0.25 0.375 0.25 0.625 0.25 0.625 0.5 0.375 0.5 0.625 0.5 0.625 0.75 0.375 0.75 0.625 0.75 0.625 1 0.375 1 0.375 0.5 0.375 0.75 0.125 0.75 0.8750001 0.5 0.8750001 0.75 0.625 0.75 0.625 0 0.625 0.25 0.375 0.25 0.625 0.25 0.625 0.5 0.375 0.5 0.625 0.5 0.625 0.75 0.375 0.75 0.625 0.75 0.625 1 0.375 1 0.375 0.5 0.375 0.75 0.125 0.75 0.8750001 0.5 0.8750001 0.75 0.625 0.75 0.625 0 0.625 0.25 0.375 0.25 0.625 0.25 0.625 0.5 0.375 0.5 0.625 0.5 0.625 0.75 0.375 0.75 0.625 0.75 0.625 1 0.375 1 0.375 0.5 0.375 0.75 0.125 0.75 0.8750001 0.5 0.8750001 0.75 0.625 0.75</float_array>
          <technique_common>
            <accessor source="#Cube_007-mesh-map-0-array" count="1044" stride="2">
              <param name="S" type="float"/>
              <param name="T" type="float"/>
            </accessor>
          </technique_common>
        </source>
        <vertices id="Cube_007-mesh-vertices">
          <input semantic="POSITION" source="#Cube_007-mesh-positions"/>
        </vertices>
        <triangles material="Material-material" count="348">
          <input semantic="VERTEX" source="#Cube_007-mesh-vertices" offset="0"/>
          <input semantic="NORMAL" source="#Cube_007-mesh-normals" offset="1"/>
          <input semantic="TEXCOORD" source="#Cube_007-mesh-map-0" offset="2" set="0"/>
          <p>1 0 0 2 0 1 0 0 2 3 1 3 6 1 4 2 1 5 7 2 6 4 2 7 6 2 8 5 3 9 0 3 10 4 3 11 6 4 12 0 4 13 2 4 14 3 5 15 5 5 16 7 5 17 9 3 18 10 3 19 8 3 20 11 0 21 14 0 22 10 0 23 15 1 24 12 1 25 14 1 26 13 2 27 8 2 28 12 2 29 14 4 30 8 4 31 10 4 32 11 5 33 13 5 34 15 5 35 17 2 36 18 2 37 16 2 38 19 3 39 22 3 40 18 3 41 23 0 42 20 0 43 22 0 44 21 1 45 16 1 46 20 1 47 22 4 48 16 4 49 18 4 50 19 5 51 21 5 52 23 5 53 25 2 54 26 2 55 24 2 56 27 3 57 30 3 58 26 3 59 31 0 60 28 0 61 30 0 62 29 1 63 24 1 64 28 1 65 26 4 66 28 4 67 24 4 68 27 5 69 29 5 70 31 5 71 33 2 72 34 2 73 32 2 74 35 3 75 38 3 76 34 3 77 39 0 78 36 0 79 38 0 80 37 1 81 32 1 82 36 1 83 34 4 84 36 4 85 32 4 86 35 5 87 37 5 88 39 5 89 41 3 90 42 3 91 40 3 92 43 0 93 46 0 94 42 0 95 47 1 96 44 1 97 46 1 98 45 2 99 40 2 100 44 2 101 46 4 102 40 4 103 42 4 104 43 5 105 45 5 106 47 5 107 49 3 108 50 3 109 48 3 110 51 0 111 54 0 112 50 0 113 55 1 114 52 1 115 54 1 116 53 2 117 48 2 118 52 2 119 54 4 120 48 4 121 50 4 122 51 5 123 53 5 124 55 5 125 57 0 126 58 0 127 56 0 128 59 1 129 62 1 130 58 1 131 63 2 132 60 2 133 62 2 134 61 3 135 56 3 136 60 3 137 62 4 138 56 4 139 58 4 140 59 5 141 61 5 142 63 5 143 65 0 144 66 0 145 64 0 146 67 1 147 70 1 148 66 1 149 71 2 150 68 2 151 70 2 152 69 3 153 64 3 154 68 3 155 70 4 156 64 4 157 66 4 158 67 5 159 69 5 160 71 5 161 73 0 162 74 0 163 72 0 164 75 1 165 78 1 166 74 1 167 79 2 168 76 2 169 78 2 170 77 3 171 72 3 172 76 3 173 78 4 174 72 4 175 74 4 176 75 5 177 77 5 178 79 5 179 81 0 180 82 0 181 80 0 182 83 1 183 86 1 184 82 1 185 87 2 186 84 2 187 86 2 188 85 3 189 80 3 190 84 3 191 86 4 192 80 4 193 82 4 194 83 5 195 85 5 196 87 5 197 89 3 198 90 3 199 88 3 200 91 0 201 94 0 202 90 0 203 95 1 204 92 1 205 94 1 206 93 2 207 88 2 208 92 2 209 94 4 210 88 4 211 90 4 212 91 5 213 93 5 214 95 5 215 97 2 216 98 2 217 96 2 218 99 3 219 102 3 220 98 3 221 103 0 222 100 0 223 102 0 224 101 1 225 96 1 226 100 1 227 102 4 228 96 4 229 98 4 230 99 5 231 101 5 232 103 5 233 105 0 234 106 0 235 104 0 236 107 1 237 110 1 238 106 1 239 111 6 240 108 6 241 110 6 242 109 3 243 104 3 244 108 3 245 110 4 246 104 4 247 106 4 248 107 5 249 109 5 250 111 5 251 113 2 252 114 2 253 112 2 254 115 3 255 118 3 256 114 3 257 119 0 258 116 0 259 118 0 260 117 1 261 112 1 262 116 1 263 118 4 264 112 4 265 114 4 266 115 5 267 117 5 268 119 5 269 121 2 270 122 2 271 120 2 272 123 3 273 126 3 274 122 3 275 127 0 276 124 0 277 126 0 278 125 1 279 120 1 280 124 1 281 126 4 282 120 4 283 122 4 284 123 5 285 125 5 286 127 5 287 129 2 288 130 2 289 128 2 290 131 3 291 134 3 292 130 3 293 135 0 294 132 0 295 134 0 296 133 1 297 128 1 298 132 1 299 134 4 300 128 4 301 130 4 302 131 5 303 133 5 304 135 5 305 137 1 306 138 1 307 136 1 308 139 2 309 142 2 310 138 2 311 143 3 312 140 3 313 142 3 314 141 0 315 136 0 316 140 0 317 142 4 318 136 4 319 138 4 320 139 5 321 141 5 322 143 5 323 145 1 324 146 1 325 144 1 326 147 2 327 150 2 328 146 2 329 151 3 330 148 3 331 150 3 332 149 0 333 144 0 334 148 0 335 150 4 336 144 4 337 146 4 338 147 5 339 149 5 340 151 5 341 153 1 342 154 1 343 152 1 344 155 2 345 158 2 346 154 2 347 159 3 348 156 3 349 158 3 350 157 0 351 152 0 352 156 0 353 158 4 354 152 4 355 154 4 356 155 5 357 157 5 358 159 5 359 161 1 360 162 1 361 160 1 362 163 2 363 166 2 364 162 2 365 167 3 366 164 3 367 166 3 368 165 0 369 160 0 370 164 0 371 166 4 372 160 4 373 162 4 374 163 5 375 165 5 376 167 5 377 169 1 378 170 1 379 168 1 380 171 2 381 174 2 382 170 2 383 175 3 384 172 3 385 174 3 386 173 0 387 168 0 388 172 0 389 174 4 390 168 4 391 170 4 392 171 5 393 173 5 394 175 5 395 177 1 396 178 1 397 176 1 398 179 2 399 182 2 400 178 2 401 183 3 402 180 3 403 182 3 404 181 0 405 176 0 406 180 0 407 182 4 408 176 4 409 178 4 410 179 5 411 181 5 412 183 5 413 185 1 414 186 1 415 184 1 416 187 2 417 190 2 418 186 2 419 191 3 420 188 3 421 190 3 422 189 0 423 184 0 424 188 0 425 190 4 426 184 4 427 186 4 428 187 5 429 189 5 430 191 5 431 193 3 432 194 3 433 192 3 434 195 0 435 198 0 436 194 0 437 199 1 438 196 1 439 198 1 440 197 2 441 192 2 442 196 2 443 198 4 444 192 4 445 194 4 446 195 5 447 197 5 448 199 5 449 201 3 450 202 3 451 200 3 452 203 7 453 206 7 454 202 7 455 207 1 456 204 1 457 206 1 458 205 8 459 200 8 460 204 8 461 206 4 462 200 4 463 202 4 464 203 5 465 205 5 466 207 5 467 209 3 468 210 3 469 208 3 470 211 0 471 214 0 472 210 0 473 215 1 474 212 1 475 214 1 476 213 2 477 208 2 478 212 2 479 214 4 480 208 4 481 210 4 482 211 5 483 213 5 484 215 5 485 217 3 486 218 3 487 216 3 488 219 0 489 222 0 490 218 0 491 223 1 492 220 1 493 222 1 494 221 2 495 216 2 496 220 2 497 222 4 498 216 4 499 218 4 500 219 5 501 221 5 502 223 5 503 225 3 504 226 3 505 224 3 506 227 0 507 230 0 508 226 0 509 231 1 510 228 1 511 230 1 512 229 2 513 224 2 514 228 2 515 230 4 516 224 4 517 226 4 518 227 5 519 229 5 520 231 5 521 1 0 522 3 0 523 2 0 524 3 1 525 7 1 526 6 1 527 7 2 528 5 2 529 4 2 530 5 3 531 1 3 532 0 3 533 6 4 534 4 4 535 0 4 536 3 5 537 1 5 538 5 5 539 9 3 540 11 3 541 10 3 542 11 0 543 15 0 544 14 0 545 15 1 546 13 1 547 12 1 548 13 2 549 9 2 550 8 2 551 14 4 552 12 4 553 8 4 554 11 5 555 9 5 556 13 5 557 17 2 558 19 2 559 18 2 560 19 3 561 23 3 562 22 3 563 23 0 564 21 0 565 20 0 566 21 1 567 17 1 568 16 1 569 22 4 570 20 4 571 16 4 572 19 5 573 17 5 574 21 5 575 25 2 576 27 2 577 26 2 578 27 3 579 31 3 580 30 3 581 31 0 582 29 0 583 28 0 584 29 1 585 25 1 586 24 1 587 26 4 588 30 4 589 28 4 590 27 5 591 25 5 592 29 5 593 33 2 594 35 2 595 34 2 596 35 3 597 39 3 598 38 3 599 39 0 600 37 0 601 36 0 602 37 1 603 33 1 604 32 1 605 34 4 606 38 4 607 36 4 608 35 5 609 33 5 610 37 5 611 41 3 612 43 3 613 42 3 614 43 0 615 47 0 616 46 0 617 47 1 618 45 1 619 44 1 620 45 2 621 41 2 622 40 2 623 46 4 624 44 4 625 40 4 626 43 5 627 41 5 628 45 5 629 49 3 630 51 3 631 50 3 632 51 0 633 55 0 634 54 0 635 55 1 636 53 1 637 52 1 638 53 2 639 49 2 640 48 2 641 54 4 642 52 4 643 48 4 644 51 5 645 49 5 646 53 5 647 57 0 648 59 0 649 58 0 650 59 1 651 63 1 652 62 1 653 63 2 654 61 2 655 60 2 656 61 3 657 57 3 658 56 3 659 62 4 660 60 4 661 56 4 662 59 5 663 57 5 664 61 5 665 65 0 666 67 0 667 66 0 668 67 1 669 71 1 670 70 1 671 71 2 672 69 2 673 68 2 674 69 3 675 65 3 676 64 3 677 70 4 678 68 4 679 64 4 680 67 5 681 65 5 682 69 5 683 73 0 684 75 0 685 74 0 686 75 1 687 79 1 688 78 1 689 79 2 690 77 2 691 76 2 692 77 3 693 73 3 694 72 3 695 78 4 696 76 4 697 72 4 698 75 5 699 73 5 700 77 5 701 81 0 702 83 0 703 82 0 704 83 1 705 87 1 706 86 1 707 87 2 708 85 2 709 84 2 710 85 3 711 81 3 712 80 3 713 86 4 714 84 4 715 80 4 716 83 5 717 81 5 718 85 5 719 89 3 720 91 3 721 90 3 722 91 0 723 95 0 724 94 0 725 95 1 726 93 1 727 92 1 728 93 2 729 89 2 730 88 2 731 94 4 732 92 4 733 88 4 734 91 5 735 89 5 736 93 5 737 97 2 738 99 2 739 98 2 740 99 3 741 103 3 742 102 3 743 103 0 744 101 0 745 100 0 746 101 1 747 97 1 748 96 1 749 102 4 750 100 4 751 96 4 752 99 5 753 97 5 754 101 5 755 105 0 756 107 0 757 106 0 758 107 1 759 111 1 760 110 1 761 111 9 762 109 9 763 108 9 764 109 3 765 105 3 766 104 3 767 110 4 768 108 4 769 104 4 770 107 5 771 105 5 772 109 5 773 113 2 774 115 2 775 114 2 776 115 3 777 119 3 778 118 3 779 119 0 780 117 0 781 116 0 782 117 1 783 113 1 784 112 1 785 118 4 786 116 4 787 112 4 788 115 5 789 113 5 790 117 5 791 121 2 792 123 2 793 122 2 794 123 3 795 127 3 796 126 3 797 127 0 798 125 0 799 124 0 800 125 1 801 121 1 802 120 1 803 126 4 804 124 4 805 120 4 806 123 5 807 121 5 808 125 5 809 129 2 810 131 2 811 130 2 812 131 3 813 135 3 814 134 3 815 135 0 816 133 0 817 132 0 818 133 1 819 129 1 820 128 1 821 134 4 822 132 4 823 128 4 824 131 5 825 129 5 826 133 5 827 137 1 828 139 1 829 138 1 830 139 2 831 143 2 832 142 2 833 143 3 834 141 3 835 140 3 836 141 0 837 137 0 838 136 0 839 142 4 840 140 4 841 136 4 842 139 5 843 137 5 844 141 5 845 145 1 846 147 1 847 146 1 848 147 2 849 151 2 850 150 2 851 151 3 852 149 3 853 148 3 854 149 0 855 145 0 856 144 0 857 150 4 858 148 4 859 144 4 860 147 5 861 145 5 862 149 5 863 153 1 864 155 1 865 154 1 866 155 2 867 159 2 868 158 2 869 159 3 870 157 3 871 156 3 872 157 0 873 153 0 874 152 0 875 158 4 876 156 4 877 152 4 878 155 5 879 153 5 880 157 5 881 161 1 882 163 1 883 162 1 884 163 2 885 167 2 886 166 2 887 167 3 888 165 3 889 164 3 890 165 0 891 161 0 892 160 0 893 166 4 894 164 4 895 160 4 896 163 5 897 161 5 898 165 5 899 169 1 900 171 1 901 170 1 902 171 2 903 175 2 904 174 2 905 175 3 906 173 3 907 172 3 908 173 0 909 169 0 910 168 0 911 174 4 912 172 4 913 168 4 914 171 5 915 169 5 916 173 5 917 177 1 918 179 1 919 178 1 920 179 2 921 183 2 922 182 2 923 183 3 924 181 3 925 180 3 926 181 0 927 177 0 928 176 0 929 182 4 930 180 4 931 176 4 932 179 5 933 177 5 934 181 5 935 185 1 936 187 1 937 186 1 938 187 2 939 191 2 940 190 2 941 191 3 942 189 3 943 188 3 944 189 0 945 185 0 946 184 0 947 190 4 948 188 4 949 184 4 950 187 5 951 185 5 952 189 5 953 193 3 954 195 3 955 194 3 956 195 0 957 199 0 958 198 0 959 199 1 960 197 1 961 196 1 962 197 2 963 193 2 964 192 2 965 198 4 966 196 4 967 192 4 968 195 5 969 193 5 970 197 5 971 201 3 972 203 3 973 202 3 974 203 0 975 207 0 976 206 0 977 207 1 978 205 1 979 204 1 980 205 8 981 201 8 982 200 8 983 206 4 984 204 4 985 200 4 986 203 5 987 201 5 988 205 5 989 209 3 990 211 3 991 210 3 992 211 0 993 215 0 994 214 0 995 215 1 996 213 1 997 212 1 998 213 2 999 209 2 1000 208 2 1001 214 4 1002 212 4 1003 208 4 1004 211 5 1005 209 5 1006 213 5 1007 217 3 1008 219 3 1009 218 3 1010 219 0 1011 223 0 1012 222 0 1013 223 1 1014 221 1 1015 220 1 1016 221 2 1017 217 2 1018 216 2 1019 222 4 1020 220 4 1021 216 4 1022 219 5 1023 217 5 1024 221 5 1025 225 3 1026 227 3 1027 226 3 1028 227 0 1029 231 0 1030 230 0 1031 231 1 1032 229 1 1033 228 1 1034 229 2 1035 225 2 1036 224 2 1037 230 4 1038 228 4 1039 224 4 1040 227 5 1041 225 5 1042 229 5 1043</p>
        </triangles>
      </mesh>
    </geometry>
    <geometry id="Cube_021-mesh" name="Cube.021">
      <mesh>
        <source id="Cube_021-mesh-positions">
          <float_array id="Cube_021-mesh-positions-array" count="24">-1 -1 -1 -1 -1 1 -1 1 -1 -1 1 1 1 -1 -1 1 -1 1 1 1 -1 1 1 1</float_array>
          <technique_common>
            <accessor source="#Cube_021-mesh-positions-array" count="8" stride="3">
              <param name="X" type="float"/>
              <param name="Y" type="float"/>
              <param name="Z" type="float"/>
            </accessor>
          </technique_common>
        </source>
        <source id="Cube_021-mesh-normals">
          <float_array id="Cube_021-mesh-normals-array" count="18">-1 0 0 0 1 0 1 0 0 0 -1 0 0 0 -1 0 0 1</float_array>
          <technique_common>
            <accessor source="#Cube_021-mesh-normals-array" count="6" stride="3">
              <param name="X" type="float"/>
              <param name="Y" type="float"/>
              <param name="Z" type="float"/>
            </accessor>
          </technique_common>
        </source>
        <source id="Cube_021-mesh-map-0">
          <float_array id="Cube_021-mesh-map-0-array" count="72">0.625 0 0.375 0.25 0.375 0 0.625 0.25 0.375 0.5 0.375 0.25 0.625 0.5 0.375 0.75 0.375 0.5 0.625 0.75 0.375 1 0.375 0.75 0.375 0.5 0.125 0.75 0.125 0.5 0.8750001 0.5 0.625 0.75 0.625 0.5 0.625 0 0.625 0.25 0.375 0.25 0.625 0.25 0.625 0.5 0.375 0.5 0.625 0.5 0.625 0.75 0.375 0.75 0.625 0.75 0.625 1 0.375 1 0.375 0.5 0.375 0.75 0.125 0.75 0.8750001 0.5 0.8750001 0.75 0.625 0.75</float_array>
          <technique_common>
            <accessor source="#Cube_021-mesh-map-0-array" count="36" stride="2">
              <param name="S" type="float"/>
              <param name="T" type="float"/>
            </accessor>
          </technique_common>
        </source>
        <vertices id="Cube_021-mesh-vertices">
          <input semantic="POSITION" source="#Cube_021-mesh-positions"/>
        </vertices>
        <triangles material="Wood-material" count="12">
          <input semantic="VERTEX" source="#Cube_021-mesh-vertices" offset="0"/>
          <input semantic="NORMAL" source="#Cube_021-mesh-normals" offset="1"/>
          <input semantic="TEXCOORD" source="#Cube_021-mesh-map-0" offset="2" set="0"/>
          <p>1 0 0 2 0 1 0 0 2 3 1 3 6 1 4 2 1 5 7 2 6 4 2 7 6 2 8 5 3 9 0 3 10 4 3 11 6 4 12 0 4 13 2 4 14 3 5 15 5 5 16 7 5 17 1 0 18 3 0 19 2 0 20 3 1 21 7 1 22 6 1 23 7 2 24 5 2 25 4 2 26 5 3 27 1 3 28 0 3 29 6 4 30 4 4 31 0 4 32 3 5 33 1 5 34 5 5 35</p>
        </triangles>
      </mesh>
    </geometry>
    <geometry id="Cube_022-mesh" name="Cube.022">
      <mesh>
        <source id="Cube_022-mesh-positions">
          <float_array id="Cube_022-mesh-positions-array" count="24">-1 -1 -1 -1 -1 1 -1 1 -1 -1 1 1 1 -1 -1 1 -1 1 1 1 -1 1 1 1</float_array>
          <technique_common>
            <accessor source="#Cube_022-mesh-positions-array" count="8" stride="3">
              <param name="X" type="float"/>
              <param name="Y" type="float"/>
              <param name="Z" type="float"/>
            </accessor>
          </technique_common>
        </source>
        <source id="Cube_022-mesh-normals">
          <float_array id="Cube_022-mesh-normals-array" count="18">-1 0 0 0 1 0 1 0 0 0 -1 0 0 0 -1 0 0 1</float_array>
          <technique_common>
            <accessor source="#Cube_022-mesh-normals-array" count="6" stride="3">
              <param name="X" type="float"/>
              <param name="Y" type="float"/>
              <param name="Z" type="float"/>
            </accessor>
          </technique_common>
        </source>
        <source id="Cube_022-mesh-map-0">
          <float_array id="Cube_022-mesh-map-0-array" count="72">0.625 0 0.375 0.25 0.375 0 0.625 0.25 0.375 0.5 0.375 0.25 0.625 0.5 0.375 0.75 0.375 0.5 0.625 0.75 0.375 1 0.375 0.75 0.375 0.5 0.125 0.75 0.125 0.5 0.8750001 0.5 0.625 0.75 0.625 0.5 0.625 0 0.625 0.25 0.375 0.25 0.625 0.25 0.625 0.5 0.375 0.5 0.625 0.5 0.625 0.75 0.375 0.75 0.625 0.75 0.625 1 0.375 1 0.375 0.5 0.375 0.75 0.125 0.75 0.8750001 0.5 0.8750001 0.75 0.625 0.75</float_array>
          <technique_common>
            <accessor source="#Cube_022-mesh-map-0-array" count="36" stride="2">
              <param name="S" type="float"/>
              <param name="T" type="float"/>
            </accessor>
          </technique_common>
        </source>
        <vertices id="Cube_022-mesh-vertices">
          <input semantic="POSITION" source="#Cube_022-mesh-positions"/>
        </vertices>
        <triangles material="Wood-material" count="12">
          <input semantic="VERTEX" source="#Cube_022-mesh-vertices" offset="0"/>
          <input semantic="NORMAL" source="#Cube_022-mesh-normals" offset="1"/>
          <input semantic="TEXCOORD" source="#Cube_022-mesh-map-0" offset="2" set="0"/>
          <p>1 0 0 2 0 1 0 0 2 3 1 3 6 1 4 2 1 5 7 2 6 4 2 7 6 2 8 5 3 9 0 3 10 4 3 11 6 4 12 0 4 13 2 4 14 3 5 15 5 5 16 7 5 17 1 0 18 3 0 19 2 0 20 3 1 21 7 1 22 6 1 23 7 2 24 5 2 25 4 2 26 5 3 27 1 3 28 0 3 29 6 4 30 4 4 31 0 4 32 3 5 33 1 5 34 5 5 35</p>
        </triangles>
      </mesh>
    </geometry>
    <geometry id="Cube_023-mesh" name="Cube.023">
      <mesh>
        <source id="Cube_023-mesh-positions">
          <float_array id="Cube_023-mesh-positions-array" count="24">-1 -1 -1 -1 -1 1 -1 1 -1 -1 1 1 1 -1 -1 1 -1 1 1 1 -1 1 1 1</float_array>
          <technique_common>
            <accessor source="#Cube_023-mesh-positions-array" count="8" stride="3">
              <param name="X" type="float"/>
              <param name="Y" type="float"/>
              <param name="Z" type="float"/>
            </accessor>
          </technique_common>
        </source>
        <source id="Cube_023-mesh-normals">
          <float_array id="Cube_023-mesh-normals-array" count="18">-1 0 0 0 1 0 1 0 0 0 -1 0 0 0 -1 0 0 1</float_array>
          <technique_common>
            <accessor source="#Cube_023-mesh-normals-array" count="6" stride="3">
              <param name="X" type="float"/>
              <param name="Y" type="float"/>
              <param name="Z" type="float"/>
            </accessor>
          </technique_common>
        </source>
        <source id="Cube_023-mesh-map-0">
          <float_array id="Cube_023-mesh-map-0-array" count="72">0.625 0 0.375 0.25 0.375 0 0.625 0.25 0.375 0.5 0.375 0.25 0.625 0.5 0.375 0.75 0.375 0.5 0.625 0.75 0.375 1 0.375 0.75 0.375 0.5 0.125 0.75 0.125 0.5 0.8750001 0.5 0.625 0.75 0.625 0.5 0.625 0 0.625 0.25 0.375 0.25 0.625 0.25 0.625 0.5 0.375 0.5 0.625 0.5 0.625 0.75 0.375 0.75 0.625 0.75 0.625 1 0.375 1 0.375 0.5 0.375 0.75 0.125 0.75 0.8750001 0.5 0.8750001 0.75 0.625 0.75</float_array>
          <technique_common>
            <accessor source="#Cube_023-mesh-map-0-array" count="36" stride="2">
              <param name="S" type="float"/>
              <param name="T" type="float"/>
            </accessor>
          </technique_common>
        </source>
        <vertices id="Cube_023-mesh-vertices">
          <input semantic="POSITION" source="#Cube_023-mesh-positions"/>
        </vertices>
        <triangles count="12">
          <input semantic="VERTEX" source="#Cube_023-mesh-vertices" offset="0"/>
          <input semantic="NORMAL" source="#Cube_023-mesh-normals" offset="1"/>
          <input semantic="TEXCOORD" source="#Cube_023-mesh-map-0" offset="2" set="0"/>
          <p>1 0 0 2 0 1 0 0 2 3 1 3 6 1 4 2 1 5 7 2 6 4 2 7 6 2 8 5 3 9 0 3 10 4 3 11 6 4 12 0 4 13 2 4 14 3 5 15 5 5 16 7 5 17 1 0 18 3 0 19 2 0 20 3 1 21 7 1 22 6 1 23 7 2 24 5 2 25 4 2 26 5 3 27 1 3 28 0 3 29 6 4 30 4 4 31 0 4 32 3 5 33 1 5 34 5 5 35</p>
        </triangles>
      </mesh>
    </geometry>
  </library_geometries>
  <library_visual_scenes>
    <visual_scene id="Scene" name="Scene">
      <node id="Plane" name="Plane" type="NODE">
        <matrix sid="transform">1 0 0 -3.066082 0 1 0 -0.1772979 0 0 1 -0.01257785 0 0 0 1</matrix>
        <instance_geometry url="#Plane_001-mesh" name="Plane">
          <bind_material>
            <technique_common>
              <instance_material symbol="Floor-material" target="#Floor-material">
                <bind_vertex_input semantic="UVMap" input_semantic="TEXCOORD" input_set="0"/>
              </instance_material>
            </technique_common>
          </bind_material>
        </instance_geometry>
      </node>
      <node id="walls" name="walls" type="NODE">
        <matrix sid="transform">3.6239e-7 -0.1 0 5.4 4.799998 7.54979e-9 0 1.254767 0 0 1.25 1.25 0 0 0 1</matrix>
        <instance_geometry url="#Cube_007-mesh" name="walls">
          <bind_material>
            <technique_common>
              <instance_material symbol="Material-material" target="#Material-material">
                <bind_vertex_input semantic="Cube_007-mesh-map-0" input_semantic="TEXCOORD" input_set="0"/>
              </instance_material>
            </technique_common>
          </bind_material>
        </instance_geometry>
      </node>
      <node id="encimera" name="encimera" type="NODE">
        <matrix sid="transform">7.92728e-8 -0.3 0 1.4 1.05 2.26494e-8 0 0.6 0 0 0.425 0.425 0 0 0 1</matrix>
        <instance_geometry url="#Cube_021-mesh" name="encimera">
          <bind_material>
            <technique_common>
              <instance_material symbol="Wood-material" target="#Wood-material">
                <bind_vertex_input semantic="Cube_021-mesh-map-0" input_semantic="TEXCOORD" input_set="0"/>
              </instance_material>
            </technique_common>
          </bind_material>
        </instance_geometry>
      </node>
      <node id="barra" name="barra" type="NODE">
        <matrix sid="transform">6.79481e-8 -0.3 0 -0.6 0.9 2.26494e-8 0 -0.16 0 0 0.5 0.5 0 0 0 1</matrix>
        <instance_geometry url="#Cube_022-mesh" name="barra">
          <bind_material>
            <technique_common>
              <instance_material symbol="Wood-material" target="#Wood-material">
                <bind_vertex_input semantic="Cube_022-mesh-map-0" input_semantic="TEXCOORD" input_set="0"/>
              </instance_material>
            </technique_common>
          </bind_material>
        </instance_geometry>
      </node>
      <node id="frigo" name="frigo" type="NODE">
        <matrix sid="transform">0.3 0 0 1.4 0 0.3 0 -0.75 0 0 0.9 0.9 0 0 0 1</matrix>
        <instance_geometry url="#Cube_023-mesh" name="frigo"/>
      </node>
    </visual_scene>
  </library_visual_scenes>
  <scene>
    <instance_visual_scene url="#Scene"/>
  </scene>
</COLLADA>