<?xml version="1.0" encoding="utf-8"?>
<COLLADA xmlns="http://www.collada.org/2005/11/COLLADASchema" version="1.4.1" xmlns:xsi="http://www.w3.org/2001/XMLSchema-instance">
  <asset>
    <contributor>
      <author>Blender User</author>
      <authoring_tool>Blender 4.5.10 LTS commit date:2026-05-18, commit time:13:28, hash:6dc0b208d1b5</authoring_tool>
    </contributor>
    <created>2026-05-29T12:08:04</created>
    <modified>2026-05-29T12:08:04</modified>
    <unit name="meter" meter="1"/>
    <up_axis>Z_UP</up_axis>
  </asset>
  <library_images/>
  <library_geometries>
    <geometry id="Plane013Mesh-mesh" name="Plane013Mesh">
      <mesh>
        <source id="Plane013Mesh-mesh-positions">
          <float_array id="Plane013Mesh-mesh-positions-array" count="561">-102.7476 -88.86283 -1.918441 -102.7476 88.86283 -1.918441 0 0 0 102.7476 -88.86283 -1.918441 102.7476 88.86283 -1.918441 0 -75 0 -75 0 0 75 0 0 0 75 0 -75 -75 0 75 -75 0 75 75 0 -75 75 0 0 -37.5 0 -37.5 0 0 -75 -37.5 0 -37.5 -75 0 37.5 0 0 37.5 -75 0 75 -37.5 0 0 37.5 0 75 37.5 0 37.5 75 0 -37.5 75 0 -75 37.5 0 -37.5 -37.5 0 37.5 -37.5 0 37.5 37.5 0 -37.5 37.5 0 0 -18.75 0 -18.75 0 0 -37.5 -18.75 0 -18.75 -37.5 0 -56.25 0 0 -75 -18.75 0 -56.25 -37.5 0 -75 -56.25 0 -56.25 -75 0 -37.5 -56.25 0 -18.75 -75 0 0 -56.25 0 -93.75 -75 0 -93.75 -37.5 0 -93.75 0 0 18.75 0 0 18.75 -37.5 0 37.5 -18.75 0 18.75 -75 0 37.5 -56.25 0 56.25 -75 0 75 -56.25 0 56.25 -37.5 0 75 -18.75 0 56.25 0 0 93.75 -75 0 93.75 0 0 93.75 -37.5 0 0 18.75 0 37.5 18.75 0 18.75 37.5 0 75 18.75 0 56.25 37.5 0 75 56.25 0 56.25 75 0 37.5 56.25 0 18.75 75 0 0 56.25 0 93.75 75 0 93.75 37.5 0 -18.75 37.5 0 -37.5 18.75 0 -18.75 75 0 -37.5 56.25 0 -56.25 75 0 -75 56.25 0 -56.25 37.5 0 -75 18.75 0 -93.75 75 0 -93.75 37.5 0 -18.75 -18.75 0 -56.25 -18.75 0 -56.25 -56.25 0 -18.75 -56.25 0 -93.75 -56.25 0 -93.75 -18.75 0 18.75 -18.75 0 18.75 -56.25 0 56.25 -56.25 0 56.25 -18.75 0 93.75 -18.75 0 93.75 -56.25 0 18.75 18.75 0 56.25 18.75 0 56.25 56.25 0 18.75 56.25 0 93.75 56.25 0 93.75 18.75 0 -18.75 18.75 0 -18.75 56.25 0 -56.25 56.25 0 -56.25 18.75 0 -93.75 18.75 0 -93.75 56.25 0 -102.7476 -46.49764 0 -102.7476 -56.25 0 -102.7476 -66.00236 0 -102.7476 -8.997643 0 -102.7476 -18.75 0 -102.7476 -28.50236 0 -79.88718 -88.86283 0 -93.75 -88.86283 0 -102.7476 -88.86283 0 -102.7476 -83.99765 0 -4.887176 -88.86283 0 -18.75 -88.86283 0 -32.61282 -88.86283 0 -70.11283 -88.86283 0 -56.25 -88.86283 0 -42.38718 -88.86283 0 70.11283 -88.86283 0 56.25 -88.86283 0 42.38718 -88.86283 0 4.887176 -88.86283 0 18.75 -88.86283 0 32.61282 -88.86283 0 79.88718 -88.86283 0 93.75 -88.86283 0 102.7476 -83.99765 0 102.7476 -88.86283 0 102.7476 -18.75 0 102.7476 -28.50236 0 102.7476 -8.997643 0 102.7476 -56.25 0 102.7476 -66.00236 0 102.7476 -46.49764 0 102.7476 56.25 0 102.7476 46.49764 0 102.7476 66.00236 0 102.7476 18.75 0 102.7476 8.997643 0 102.7476 28.50236 0 93.75 88.86283 0 79.88718 88.86283 0 102.7476 88.86283 0 102.7476 83.99765 0 18.75 88.86283 0 4.887176 88.86283 0 32.61282 88.86283 0 70.11283 88.86283 0 56.25 88.86283 0 42.38718 88.86283 0 -56.25 88.86283 0 -70.11283 88.86283 0 -42.38718 88.86283 0 -4.887176 88.86283 0 -18.75 88.86283 0 -32.61282 88.86283 0 -79.88718 88.86283 0 -93.75 88.86283 0 -102.7476 83.99765 0 -102.7476 88.86283 0 -102.7476 28.50236 0 -102.7476 18.75 0 -102.7476 8.997643 0 -102.7476 66.00236 0 -102.7476 56.25 0 -102.7476 46.49764 0 -102.7476 -37.5 0 -102.7476 -75 0 -102.7476 0 0 -75 -88.86283 0 0 -88.86283 0 -37.5 -88.86283 0 75 -88.86283 0 37.5 -88.86283 0 102.7476 -75 0 102.7476 -37.5 0 102.7476 0 0 102.7476 37.5 0 102.7476 75 0 75 88.86283 0 0 88.86283 0 37.5 88.86283 0 -75 88.86283 0 -37.5 88.86283 0 -102.7476 75 0 -102.7476 37.5 0</float_array>
          <technique_common>
            <accessor source="#Plane013Mesh-mesh-positions-array" count="187" stride="3">
              <param name="X" type="float"/>
              <param name="Y" type="float"/>
              <param name="Z" type="float"/>
            </accessor>
          </technique_common>
        </source>
        <source id="Plane013Mesh-mesh-normals">
          <float_array id="Plane013Mesh-mesh-normals-array" count="60">0 0 1 -1 0 0 0 1 -4.55693e-5 1 0 0 0 -1 -4.55693e-5 0 0 -1 0 1 0 0 1 6.50989e-6 0 1 6.50991e-6 0 1 -1.83599e-5 0 1 1.04158e-4 0 1 5.8589e-5 0 1 -4.55692e-5 0 -1 0 0 -1 6.50989e-6 0 -1 6.50991e-6 0 -1 -1.83599e-5 0 -1 1.04158e-4 0 -1 5.8589e-5 0 -1 -4.55692e-5</float_array>
          <technique_common>
            <accessor source="#Plane013Mesh-mesh-normals-array" count="20" stride="3">
              <param name="X" type="float"/>
              <param name="Y" type="float"/>
              <param name="Z" type="float"/>
            </accessor>
          </technique_common>
        </source>
        <source id="Plane013Mesh-mesh-map-0">
          <float_array id="Plane013Mesh-mesh-map-0-array" count="2220">0.5 0.496875 0.496875 0.5 0.496875 0.496875 0.496875 0.5 0.49375 0.496875 0.496875 0.496875 0.49375 0.496875 0.496875 0.49375 0.496875 0.496875 0.496875 0.49375 0.5 0.496875 0.496875 0.496875 0.490625 0.5 0.4875 0.496875 0.490625 0.496875 0.4875 0.496875 0.490625 0.49375 0.490625 0.496875 0.490625 0.49375 0.49375 0.496875 0.490625 0.496875 0.49375 0.496875 0.490625 0.5 0.490625 0.496875 0.4875 0.490625 0.490625 0.4875 0.490625 0.490625 0.490625 0.4875 0.49375 0.490625 0.490625 0.490625 0.49375 0.490625 0.490625 0.49375 0.490625 0.490625 0.490625 0.49375 0.4875 0.490625 0.490625 0.490625 0.496875 0.4875 0.5 0.490625 0.496875 0.490625 0.5 0.490625 0.496875 0.49375 0.496875 0.490625 0.496875 0.49375 0.49375 0.490625 0.496875 0.490625 0.49375 0.490625 0.496875 0.4875 0.496875 0.490625 0.484375 0.4875 0.4875 0.490625 0.484375 0.490625 0.4875 0.490625 0.484375 0.49375 0.484375 0.490625 0.484375 0.490625 0.4828754 0.4922504 0.4828754 0.490625 0.484375 0.490625 0.4828754 0.4889996 0.484375 0.4875 0.4875 0.496875 0.484375 0.5 0.484375 0.496875 0.484375 0.496875 0.4828754 0.4985004 0.4828754 0.496875 0.484375 0.496875 0.4828754 0.4952496 0.484375 0.49375 0.484375 0.49375 0.4875 0.496875 0.484375 0.496875 0.4866854 0.4851895 0.484375 0.4875 0.484375 0.4851895 0.4828754 0.4860004 0.484375 0.4851895 0.484375 0.4875 0.4991855 0.4851895 0.496875 0.4875 0.496875 0.4851895 0.496875 0.4851895 0.496875 0.4875 0.4945645 0.4851895 0.490625 0.4851895 0.490625 0.4875 0.4883145 0.4851895 0.4929354 0.4851895 0.490625 0.4875 0.490625 0.4851895 0.503125 0.5 0.5 0.496875 0.503125 0.496875 0.5 0.496875 0.503125 0.49375 0.503125 0.496875 0.503125 0.49375 0.50625 0.496875 0.503125 0.496875 0.50625 0.496875 0.503125 0.5 0.503125 0.496875 0.5 0.490625 0.503125 0.4875 0.503125 0.490625 0.503125 0.4875 0.50625 0.490625 0.503125 0.490625 0.50625 0.490625 0.503125 0.49375 0.503125 0.490625 0.503125 0.49375 0.5 0.490625 0.503125 0.490625 0.509375 0.4875 0.5125 0.490625 0.509375 0.490625 0.5125 0.490625 0.509375 0.49375 0.509375 0.490625 0.509375 0.49375 0.50625 0.490625 0.509375 0.490625 0.50625 0.490625 0.509375 0.4875 0.509375 0.490625 0.5125 0.496875 0.509375 0.5 0.509375 0.496875 0.509375 0.5 0.50625 0.496875 0.509375 0.496875 0.50625 0.496875 0.509375 0.49375 0.509375 0.496875 0.509375 0.49375 0.5125 0.496875 0.509375 0.496875 0.5116854 0.4851895 0.509375 0.4875 0.509375 0.4851895 0.509375 0.4851895 0.509375 0.4875 0.5070645 0.4851895 0.503125 0.4851895 0.503125 0.4875 0.5008146 0.4851895 0.5054354 0.4851895 0.503125 0.4875 0.503125 0.4851895 0.515625 0.4851895 0.515625 0.4875 0.5133146 0.4851895 0.515625 0.4851895 0.5171247 0.4860004 0.515625 0.4875 0.515625 0.5 0.5125 0.496875 0.515625 0.496875 0.5125 0.496875 0.515625 0.49375 0.515625 0.496875 0.5171247 0.4952496 0.515625 0.496875 0.515625 0.49375 0.515625 0.496875 0.5171247 0.4985004 0.515625 0.5 0.5125 0.490625 0.515625 0.4875 0.515625 0.490625 0.5171247 0.4889996 0.515625 0.490625 0.515625 0.4875 0.515625 0.490625 0.5171247 0.4922504 0.515625 0.49375 0.515625 0.49375 0.5125 0.490625 0.515625 0.490625 0.5 0.503125 0.503125 0.5 0.503125 0.503125 0.503125 0.5 0.50625 0.503125 0.503125 0.503125 0.50625 0.503125 0.503125 0.50625 0.503125 0.503125 0.503125 0.50625 0.5 0.503125 0.503125 0.503125 0.509375 0.5 0.5125 0.503125 0.509375 0.503125 0.5125 0.503125 0.509375 0.50625 0.509375 0.503125 0.509375 0.50625 0.50625 0.503125 0.509375 0.503125 0.50625 0.503125 0.509375 0.5 0.509375 0.503125 0.5125 0.509375 0.509375 0.5125 0.509375 0.509375 0.509375 0.5125 0.50625 0.509375 0.509375 0.509375 0.50625 0.509375 0.509375 0.50625 0.509375 0.509375 0.509375 0.50625 0.5125 0.509375 0.509375 0.509375 0.503125 0.5125 0.5 0.509375 0.503125 0.509375 0.5 0.509375 0.503125 0.50625 0.503125 0.509375 0.503125 0.50625 0.50625 0.509375 0.503125 0.509375 0.50625 0.509375 0.503125 0.5125 0.503125 0.509375 0.515625 0.5125 0.5125 0.509375 0.515625 0.509375 0.5125 0.509375 0.515625 0.50625 0.515625 0.509375 0.5171247 0.5077496 0.515625 0.509375 0.515625 0.50625 0.515625 0.509375 0.5171247 0.5110004 0.515625 0.5125 0.5125 0.503125 0.515625 0.5 0.515625 0.503125 0.5171247 0.5014996 0.515625 0.503125 0.515625 0.5 0.515625 0.503125 0.5171247 0.5047504 0.515625 0.50625 0.515625 0.50625 0.5125 0.503125 0.515625 0.503125 0.515625 0.5125 0.515625 0.5148105 0.5133145 0.5148105 0.5171247 0.5139996 0.515625 0.5148105 0.515625 0.5125 0.503125 0.5125 0.503125 0.5148105 0.5008145 0.5148105 0.503125 0.5148105 0.503125 0.5125 0.5054355 0.5148105 0.509375 0.5148105 0.509375 0.5125 0.5116855 0.5148105 0.509375 0.5125 0.509375 0.5148105 0.5070645 0.5148105 0.496875 0.5 0.5 0.503125 0.496875 0.503125 0.5 0.503125 0.496875 0.50625 0.496875 0.503125 0.496875 0.50625 0.49375 0.503125 0.496875 0.503125 0.49375 0.503125 0.496875 0.5 0.496875 0.503125 0.5 0.509375 0.496875 0.5125 0.496875 0.509375 0.496875 0.5125 0.49375 0.509375 0.496875 0.509375 0.49375 0.509375 0.496875 0.50625 0.496875 0.509375 0.496875 0.50625 0.5 0.509375 0.496875 0.509375 0.490625 0.5125 0.4875 0.509375 0.490625 0.509375 0.4875 0.509375 0.490625 0.50625 0.490625 0.509375 0.490625 0.50625 0.49375 0.509375 0.490625 0.509375 0.49375 0.509375 0.490625 0.5125 0.490625 0.509375 0.4875 0.503125 0.490625 0.5 0.490625 0.503125 0.490625 0.5 0.49375 0.503125 0.490625 0.503125 0.49375 0.503125 0.490625 0.50625 0.490625 0.503125 0.490625 0.50625 0.4875 0.503125 0.490625 0.503125 0.490625 0.5125 0.490625 0.5148105 0.4883145 0.5148105 0.490625 0.5148105 0.490625 0.5125 0.4929354 0.5148105 0.496875 0.5148105 0.496875 0.5125 0.4991855 0.5148105 0.496875 0.5125 0.496875 0.5148105 0.4945645 0.5148105 0.484375 0.5148105 0.484375 0.5125 0.4866855 0.5148105 0.484375 0.5148105 0.4828754 0.5139996 0.484375 0.5125 0.484375 0.5 0.4875 0.503125 0.484375 0.503125 0.4875 0.503125 0.484375 0.50625 0.484375 0.503125 0.484375 0.503125 0.4828754 0.5047504 0.4828754 0.503125 0.484375 0.503125 0.4828754 0.5014996 0.484375 0.5 0.4875 0.509375 0.484375 0.5125 0.484375 0.509375 0.484375 0.509375 0.4828754 0.5110004 0.4828754 0.509375 0.484375 0.509375 0.4828754 0.5077496 0.484375 0.50625 0.484375 0.50625 0.4875 0.509375 0.484375 0.509375 0.5 0.496875 0.5 0.5 0.496875 0.5 0.496875 0.5 0.49375 0.5 0.49375 0.496875 0.49375 0.496875 0.49375 0.49375 0.496875 0.49375 0.496875 0.49375 0.5 0.49375 0.5 0.496875 0.490625 0.5 0.4875 0.5 0.4875 0.496875 0.4875 0.496875 0.4875 0.49375 0.490625 0.49375 0.490625 0.49375 0.49375 0.49375 0.49375 0.496875 0.49375 0.496875 0.49375 0.5 0.490625 0.5 0.4875 0.490625 0.4875 0.4875 0.490625 0.4875 0.490625 0.4875 0.49375 0.4875 0.49375 0.490625 0.49375 0.490625 0.49375 0.49375 0.490625 0.49375 0.490625 0.49375 0.4875 0.49375 0.4875 0.490625 0.496875 0.4875 0.5 0.4875 0.5 0.490625 0.5 0.490625 0.5 0.49375 0.496875 0.49375 0.496875 0.49375 0.49375 0.49375 0.49375 0.490625 0.49375 0.490625 0.49375 0.4875 0.496875 0.4875 0.484375 0.4875 0.4875 0.4875 0.4875 0.490625 0.4875 0.490625 0.4875 0.49375 0.484375 0.49375 0.4828754 0.49375 0.4828754 0.4922504 0.484375 0.49375 0.4828754 0.4889996 0.4828754 0.4875 0.484375 0.4875 0.4875 0.496875 0.4875 0.5 0.484375 0.5 0.4828754 0.5 0.4828754 0.4985004 0.484375 0.5 0.4828754 0.4952496 0.4828754 0.49375 0.484375 0.49375 0.484375 0.49375 0.4875 0.49375 0.4875 0.496875 0.4875 0.4875 0.4866854 0.4851895 0.4875 0.4851895 0.4828754 0.4875 0.4828754 0.4860004 0.484375 0.4875 0.5 0.4875 0.4991855 0.4851895 0.5 0.4851895 0.49375 0.4875 0.4945645 0.4851895 0.496875 0.4875 0.4875 0.4875 0.4883145 0.4851895 0.490625 0.4875 0.49375 0.4875 0.4929354 0.4851895 0.49375 0.4851895 0.503125 0.5 0.5 0.5 0.5 0.496875 0.5 0.496875 0.5 0.49375 0.503125 0.49375 0.503125 0.49375 0.50625 0.49375 0.50625 0.496875 0.50625 0.496875 0.50625 0.5 0.503125 0.5 0.5 0.490625 0.5 0.4875 0.503125 0.4875 0.503125 0.4875 0.50625 0.4875 0.50625 0.490625 0.50625 0.490625 0.50625 0.49375 0.503125 0.49375 0.503125 0.49375 0.5 0.49375 0.5 0.490625 0.509375 0.4875 0.5125 0.4875 0.5125 0.490625 0.5125 0.490625 0.5125 0.49375 0.509375 0.49375 0.509375 0.49375 0.50625 0.49375 0.50625 0.490625 0.50625 0.490625 0.50625 0.4875 0.509375 0.4875 0.5125 0.496875 0.5125 0.5 0.509375 0.5 0.509375 0.5 0.50625 0.5 0.50625 0.496875 0.50625 0.496875 0.50625 0.49375 0.509375 0.49375 0.509375 0.49375 0.5125 0.49375 0.5125 0.496875 0.5125 0.4875 0.5116854 0.4851895 0.5125 0.4851895 0.50625 0.4875 0.5070645 0.4851895 0.509375 0.4875 0.5 0.4875 0.5008146 0.4851895 0.503125 0.4875 0.50625 0.4875 0.5054354 0.4851895 0.50625 0.4851895 0.5125 0.4875 0.5133146 0.4851895 0.515625 0.4875 0.515625 0.4875 0.5171247 0.4860004 0.5171247 0.4875 0.515625 0.5 0.5125 0.5 0.5125 0.496875 0.5125 0.496875 0.5125 0.49375 0.515625 0.49375 0.515625 0.49375 0.5171247 0.49375 0.5171247 0.4952496 0.515625 0.5 0.5171247 0.4985004 0.5171247 0.5 0.5125 0.490625 0.5125 0.4875 0.515625 0.4875 0.515625 0.4875 0.5171247 0.4875 0.5171247 0.4889996 0.515625 0.49375 0.5171247 0.4922504 0.5171247 0.49375 0.515625 0.49375 0.5125 0.49375 0.5125 0.490625 0.5 0.503125 0.5 0.5 0.503125 0.5 0.503125 0.5 0.50625 0.5 0.50625 0.503125 0.50625 0.503125 0.50625 0.50625 0.503125 0.50625 0.503125 0.50625 0.5 0.50625 0.5 0.503125 0.509375 0.5 0.5125 0.5 0.5125 0.503125 0.5125 0.503125 0.5125 0.50625 0.509375 0.50625 0.509375 0.50625 0.50625 0.50625 0.50625 0.503125 0.50625 0.503125 0.50625 0.5 0.509375 0.5 0.5125 0.509375 0.5125 0.5125 0.509375 0.5125 0.509375 0.5125 0.50625 0.5125 0.50625 0.509375 0.50625 0.509375 0.50625 0.50625 0.509375 0.50625 0.509375 0.50625 0.5125 0.50625 0.5125 0.509375 0.503125 0.5125 0.5 0.5125 0.5 0.509375 0.5 0.509375 0.5 0.50625 0.503125 0.50625 0.503125 0.50625 0.50625 0.50625 0.50625 0.509375 0.50625 0.509375 0.50625 0.5125 0.503125 0.5125 0.515625 0.5125 0.5125 0.5125 0.5125 0.509375 0.5125 0.509375 0.5125 0.50625 0.515625 0.50625 0.515625 0.50625 0.5171247 0.50625 0.5171247 0.5077496 0.515625 0.5125 0.5171247 0.5110004 0.5171247 0.5125 0.5125 0.503125 0.5125 0.5 0.515625 0.5 0.515625 0.5 0.5171247 0.5 0.5171247 0.5014996 0.515625 0.50625 0.5171247 0.5047504 0.5171247 0.50625 0.515625 0.50625 0.5125 0.50625 0.5125 0.503125 0.5125 0.5125 0.5133145 0.5148105 0.5125 0.5148105 0.515625 0.5125 0.5171247 0.5125 0.5171247 0.5139996 0.5 0.5125 0.5008145 0.5148105 0.5 0.5148105 0.5054355 0.5148105 0.50625 0.5125 0.50625 0.5148105 0.5116855 0.5148105 0.5125 0.5125 0.5125 0.5148105 0.50625 0.5125 0.5070645 0.5148105 0.50625 0.5148105 0.496875 0.5 0.5 0.5 0.5 0.503125 0.5 0.503125 0.5 0.50625 0.496875 0.50625 0.496875 0.50625 0.49375 0.50625 0.49375 0.503125 0.49375 0.503125 0.49375 0.5 0.496875 0.5 0.5 0.509375 0.5 0.5125 0.496875 0.5125 0.496875 0.5125 0.49375 0.5125 0.49375 0.509375 0.49375 0.509375 0.49375 0.50625 0.496875 0.50625 0.496875 0.50625 0.5 0.50625 0.5 0.509375 0.490625 0.5125 0.4875 0.5125 0.4875 0.509375 0.4875 0.509375 0.4875 0.50625 0.490625 0.50625 0.490625 0.50625 0.49375 0.50625 0.49375 0.509375 0.49375 0.509375 0.49375 0.5125 0.490625 0.5125 0.4875 0.503125 0.4875 0.5 0.490625 0.5 0.490625 0.5 0.49375 0.5 0.49375 0.503125 0.49375 0.503125 0.49375 0.50625 0.490625 0.50625 0.490625 0.50625 0.4875 0.50625 0.4875 0.503125 0.4875 0.5125 0.4883145 0.5148105 0.4875 0.5148105 0.4929354 0.5148105 0.49375 0.5125 0.49375 0.5148105 0.4991855 0.5148105 0.5 0.5125 0.5 0.5148105 0.49375 0.5125 0.4945645 0.5148105 0.49375 0.5148105 0.4866855 0.5148105 0.4875 0.5125 0.4875 0.5148105 0.4828754 0.5139996 0.4828754 0.5125 0.484375 0.5125 0.484375 0.5 0.4875 0.5 0.4875 0.503125 0.4875 0.503125 0.4875 0.50625 0.484375 0.50625 0.4828754 0.50625 0.4828754 0.5047504 0.484375 0.50625 0.4828754 0.5014996 0.4828754 0.5 0.484375 0.5 0.4875 0.509375 0.4875 0.5125 0.484375 0.5125 0.4828754 0.5125 0.4828754 0.5110004 0.484375 0.5125 0.4828754 0.5077496 0.4828754 0.50625 0.484375 0.50625 0.484375 0.50625 0.4875 0.50625 0.4875 0.509375 0 0 0 0 0 0 0 0 0 0 0 0 0 0 0 0 0 0 0 0 0 0 0 0 0 0 0 0 0 0 0.484375 0.490625 0.484375 0.49375 0.4828754 0.4922504 0.484375 0.490625 0.4828754 0.490625 0.4828754 0.4889996 0.484375 0.496875 0.484375 0.5 0.4828754 0.4985004 0.484375 0.496875 0.4828754 0.496875 0.4828754 0.4952496 0.4828754 0.4860004 0.4828754 0.4851895 0.484375 0.4851895 0.515625 0.4851895 0.5171247 0.4851895 0.5171247 0.4860004 0.5171247 0.4952496 0.5171247 0.496875 0.515625 0.496875 0.515625 0.496875 0.5171247 0.496875 0.5171247 0.4985004 0.5171247 0.4889996 0.5171247 0.490625 0.515625 0.490625 0.515625 0.490625 0.5171247 0.490625 0.5171247 0.4922504 0.5171247 0.5077496 0.5171247 0.509375 0.515625 0.509375 0.515625 0.509375 0.5171247 0.509375 0.5171247 0.5110004 0.5171247 0.5014996 0.5171247 0.503125 0.515625 0.503125 0.515625 0.503125 0.5171247 0.503125 0.5171247 0.5047504 0.5171247 0.5139996 0.5171247 0.5148105 0.515625 0.5148105 0.484375 0.5148105 0.4828754 0.5148105 0.4828754 0.5139996 0.484375 0.503125 0.484375 0.50625 0.4828754 0.5047504 0.484375 0.503125 0.4828754 0.503125 0.4828754 0.5014996 0.484375 0.509375 0.484375 0.5125 0.4828754 0.5110004 0.484375 0.509375 0.4828754 0.509375 0.4828754 0.5077496 0.4875 0.4875 0.484375 0.4875 0.4866854 0.4851895 0.5 0.4875 0.496875 0.4875 0.4991855 0.4851895 0.49375 0.4875 0.49375 0.4851895 0.4945645 0.4851895 0.4875 0.4875 0.4875 0.4851895 0.4883145 0.4851895 0.49375 0.4875 0.490625 0.4875 0.4929354 0.4851895 0.5125 0.4875 0.509375 0.4875 0.5116854 0.4851895 0.50625 0.4875 0.50625 0.4851895 0.5070645 0.4851895 0.5 0.4875 0.5 0.4851895 0.5008146 0.4851895 0.50625 0.4875 0.503125 0.4875 0.5054354 0.4851895 0.5125 0.4875 0.5125 0.4851895 0.5133146 0.4851895 0.5125 0.5125 0.515625 0.5125 0.5133145 0.5148105 0.5 0.5125 0.503125 0.5125 0.5008145 0.5148105 0.5054355 0.5148105 0.503125 0.5125 0.50625 0.5125 0.5116855 0.5148105 0.509375 0.5125 0.5125 0.5125 0.50625 0.5125 0.509375 0.5125 0.5070645 0.5148105 0.4875 0.5125 0.490625 0.5125 0.4883145 0.5148105 0.4929354 0.5148105 0.490625 0.5125 0.49375 0.5125 0.4991855 0.5148105 0.496875 0.5125 0.5 0.5125 0.49375 0.5125 0.496875 0.5125 0.4945645 0.5148105 0.4866855 0.5148105 0.484375 0.5125 0.4875 0.5125 0 0 0 0 0 0 0 0 0 0 0 0 0 0 0 0 0 0 0 0 0 0 0 0 0 0 0 0 0 0 0 0 0 0 0 0 0 0 0 0 0 0 0 0 0 0 0 0 0 0 0 0 0 0 0 0 0 0 0 0 0 0 0 0 0 0 0 0 0 0 0 0 0 0 0 0 0 0 0 0 0 0 0 0 0 0 0 0 0 0 0 0 0 0 0 0 0 0 0 0 0 0 0 0 0 0 0 0 0 0 0 0 0 0 0 0 0 0 0 0 0 0 0 0 0 0 0 0 0 0 0 0 0 0 0 0 0 0 0 0 0 0 0 0 0 0 0 0 0 0 0 0 0 0 0 0 0 0 0 0 0 0 0 0 0 0 0 0 0 0 0 0 0 0 0 0 0 0 0 0 0 0 0 0 0 0 0 0 0 0 0 0 0 0 0 0 0 0 0 0 0 0 0 0 0 0 0 0 0 0 0 0 0 0 0 0 0 0 0 0 0 0 0 0 0 0 0 0 0 0 0 0 0 0 0 0 0 0 0 0 0 0 0 0 0 0 0 0 0 0 0 0 0 0 0 0 0 0 0 0 0 0 0 0 0 0 0 0 0 0 0 0 0 0 0 0 0 0 0 0 0 0 0 0 0 0 0 0 0 0 0 0 0 0 0 0 0 0 0 0 0 0 0 0 0 0 0 0 0 0 0 0 0 0 0 0 0 0 0 0 0 0 0 0 0 0 0 0 0 0 0 0 0 0 0 0 0 0 0 0 0 0 0 0 0 0 0 0 0 0 0 0 0 0 0 0 0 0 0 0 0 0 0 0 0 0 0 0 0 0 0 0 0 0 0 0 0 0 0 0 0 0 0 0 0 0 0 0 0 0 0 0 0 0 0 0 0 0 0 0 0 0 0 0 0 0 0 0 0 0 0 0 0 0 0 0 0 0 0 0 0 0 0 0 0 0 0 0 0 0 0 0 0 0 0 0 0 0 0 0 0 0 0 0 0 0 0 0 0 0 0 0 0 0 0 0 0 0 0 0 0 0 0 0 0 0 0 0 0 0 0 0 0 0 0 0 0 0 0 0 0 0 0 0 0 0 0 0 0 0 0 0 0 0 0 0 0 0 0 0 0 0 0 0 0 0 0 0 0 0</float_array>
          <technique_common>
            <accessor source="#Plane013Mesh-mesh-map-0-array" count="1110" stride="2">
              <param name="S" type="float"/>
              <param name="T" type="float"/>
            </accessor>
          </technique_common>
        </source>
        <source id="Plane013Mesh-mesh-map-1">
          <float_array id="Plane013Mesh-mesh-map-1-array" count="2220">0 0 0 0 0 0 0 0 0 0 0 0 0 0 0 0 0 0 0 0 0 0 0 0 0 0 0 0 0 0 0 0 0 0 0 0 0 0 0 0 0 0 0 0 0 0 0 0 0 0 0 0 0 0 0 0 0 0 0 0 0 0 0 0 0 0 0 0 0 0 0 0 0 0 0 0 0 0 0 0 0 0 0 0 0 0 0 0 0 0 0 0 0 0 0 0 0 0 0 0 0 0 0 0 0 0 0 0 0 0 0 0 0 0 0 0 0 0 0 0 0 0 0 0 0 0 0 0 0 0 0 0 0 0 0 0 0 0 0 0 0 0 0 0 0 0 0 0 0 0 0 0 0 0 0 0 0 0 0 0 0 0 0 0 0 0 0 0 0 0 0 0 0 0 0 0 0 0 0 0 0 0 0 0 0 0 0 0 0 0 0 0 0 0 0 0 0 0 0 0 0 0 0 0 0 0 0 0 0 0 0 0 0 0 0 0 0 0 0 0 0 0 0 0 0 0 0 0 0 0 0 0 0 0 0 0 0 0 0 0 0 0 0 0 0 0 0 0 0 0 0 0 0 0 0 0 0 0 0 0 0 0 0 0 0 0 0 0 0 0 0 0 0 0 0 0 0 0 0 0 0 0 0 0 0 0 0 0 0 0 0 0 0 0 0 0 0 0 0 0 0 0 0 0 0 0 0 0 0 0 0 0 0 0 0 0 0 0 0 0 0 0 0 0 0 0 0 0 0 0 0 0 0 0 0 0 0 0 0 0 0 0 0 0 0 0 0 0 0 0 0 0 0 0 0 0 0 0 0 0 0 0 0 0 0 0 0 0 0 0 0 0 0 0 0 0 0 0 0 0 0 0 0 0 0 0 0 0 0 0 0 0 0 0 0 0 0 0 0 0 0 0 0 0 0 0 0 0 0 0 0 0 0 0 0 0 0 0 0 0 0 0 0 0 0 0 0 0 0 0 0 0 0 0 0 0 0 0 0 0 0 0 0 0 0 0 0 0 0 0 0 0 0 0 0 0 0 0 0 0 0 0 0 0 0 0 0 0 0 0 0 0 0 0 0 0 0 0 0 0 0 0 0 0 0 0 0 0 0 0 0 0 0 0 0 0 0 0 0 0 0 0 0 0 0 0 0 0 0 0 0 0 0 0 0 0 0 0 0 0 0 0 0 0 0 0 0 0 0 0 0 0 0 0 0 0 0 0 0 0 0 0 0 0 0 0 0 0 0 0 0 0 0 0 0 0 0 0 0 0 0 0 0 0 0 0 0 0 0 0 0 0 0 0 0 0 0 0 0 0 0 0 0 0 0 0 0 0 0 0 0 0 0 0 0 0 0 0 0 0 0 0 0 0 0 0 0 0 0 0 0 0 0 0 0 0 0 0 0 0 0 0 0 0 0 0 0 0 0 0 0 0 0 0 0 0 0 0 0 0 0 0 0 0 0 0 0 0 0 0 0 0 0 0 0 0 0 0 0 0 0 0 0 0 0 0 0 0 0 0 0 0 0 0 0 0 0 0 0 0 0 0 0 0 0 0 0 0 0 0 0 0 0 0 0 0 0 0 0 0 0 0 0 0 0 0 0 0 0 0 0 0 0 0 0 0 0 0 0 0 0 0 0 0 0 0 0 0 0 0 0 0 0 0 0 0 0 0 0 0 0 0 0 0 0 0 0 0 0 0 0 0 0 0 0 0 0 0 0 0 0 0 0 0 0 0 0 0 0 0 0 0 0 0 0 0 0 0 0 0 0 0 0 0 0 0 0 0 0 0 0 0 0 0 0 0 0 0 0 0 0 0 0 0 0 0 0 0 0 0 0 0 0 0 0 0 0 0 0 0 0 0 0 0 0 0 0 0 0 0 0 0 0 0 0 0 0 0 0 0 0 0 0 0 0 0 0 0 0 0 0 0 0 0 0 0 0 0 0 0 0 0 0 0 0 0 0 0 0 0 0 0 0 0 0 0 0 0 0 0 0 0 0 0 0 0 0 0 0 0 0 0 0 0 0 0 0 0 0 0 0 0 0 0 0 0 0 0 0 0 0 0 0 0 0 0 0 0 0 0 0 0 0 0 0 0 0 0 0 0 0 0 0 0 0 0 0 0 0 0 0 0 0 0 0 0 0 0 0 0 0 0 0 0 0 0 0 0 0 0 0 0 0 0 0 0 0 0 0 0 0 0 0 0 0 0 0 0 0 0 0 0 0 0 0 0 0 0 0 0 0 0 0 0 0 0 0 0 0 0 0 0 0 0 0 0 0 0 0 0 0 0 0 0 0 0 0 0 0 0 0 0 0 0 0 0 0 0 0 0 0 0 0 0 0 0 0 0 0 0 0 0 0 0 0 0 0 0 0 0 0 0 0 0 0 0 0 0 0 0 0 0 0 0 0 0 0 0 0 0 0 0 0 0 0 0 0 0 0 0 0 0 0 0 0 0 0 0 0 0 0 0 0 0 0 0 0 0 0 0 0 0 0 0 0 0 0 0 0 0 0 0 0 0 0 0 0 0 0 0 0 0 0 0 0 0 0 0 0 0 0 0 0 0 0 0 0 0 0 0 0 0 0 0 0 0 0 0 0 0 0 0 0 0 0 0 0 0 0 0 0 0 0 0 0 0 0 0 0 0 0 0 0 0 0 0 0 0 0 0 0 0 0 0 0 0 0 0 0 0 0 0 0 0 0 0 0 0 0 0 0 0 0 0 0 0 0 0 0 0 0 0 0 0 0 0 0 0 0 0 0 0 0 0 0 0 0 0 0 0 0 0 0 0 0 0 0 0 0 0 0 0 0 0 0 0 0 0 0 0 0 0 0 0 0 0 0 0 0 0 0 0 0 0 0 0 0 0 0 0 0 0 0 0 0 0 0 0 0 0 0 0 0 0 0 0 0 0 0 0 0 0 0 0 0 0 0 0 0 0 0 0 0 0 0 0 0 0 0 0 0 0 0 0 0 0 0 0 0 0 0 0 0 0 0 0 0 0 0 0 0 0 0 0 0 0 0 0 0 0 0 0 0 0 0 0 0 0 0 0 0 0 0 0 0 0 0 0 0 0 0 0 0 0 0 0 0 0 0 0 0 0 0 0 0 0 0 0 0 0 0 0 0 0 0 0 0 0 0 0 0 0 0 0 0 0 0 0 0 0 0 0 0 0 0 0 0 0 0 0 0 0 0 0 0 0 0 0 0 0 0 0 0 0 0 0 0 0 0 0 0 0 0 0 0 0 0 0 0 0 0 0 0 0 0 0 0 0 0 0 0 0 0 0 0 0 0 0 0 0 0 0 0 0 0 0 0 0 0 0 0 0 0 0 0 0 0 0 0 0 0 0 0 0 0 0 0 0 0 0 0 0 0 0 0 0 0 0 0 0 0 0 0 0 0 0 0 0 0 0 0 0 0 0 0 0 0 0 0 0 0 0 0 0 0 0 0 0 0 0 0 0 0 0 0 0 0 0 0 0 0 0 0 0 0 0 0 0 0 0 0 0 0 0 0 0 0 0 0 0 0 0 0 0 0 0 0 0 0 0 0 0 0 0 0 0 0 0 0 0 0 0 0 0 0 0 0 0 0 0 0 0 0 0 0 0 0 0 0 0 0 0 0 0 0 0 0 0 0 0 0 0 0 0 0 0 0 0 0 0 0 0 0 0 0 0 0 0 0 0 0 0 0 0 0 0 0 0 0 0 0 0 0 0 0 0 0 0 0 0 0 0 0 0 0 0 0 0 0 0 0 0 0 0 0 0 0 0 0 0 0 0 0 0 0 0 0 0 0 0 0 0 0 0 0 0 0 0 0 0 0 0 0 0 0 0 0 0 0 0 0 0 0 0 0 0 0 0 0 0 0 0 0 0 0 0 0 0 0 0 0 0 0 0 0 0 0 0 0 0 0 0 0 0 0 0 0 0 0 0 0 0 0 0 0 0 0 0 0 0 0 0 0 0 0 0 0 0 0 0 0 0 0 0 0 0 0 0 0 0 0 0 0 0 0 0 0 0 0 0 0 0 0 0 0 0 0 0 0 0 0 0 0 0 0 0 0 0 0 0 0 0 0 0 0 0 0 0 0 0 0 0 0 0 0 0 0 0 0 0 0 0 0 0 0 0 0 0 0 0 0 0 0 0 0 0 0 0 0 0 0 0 0 0 0 0 0 0 0 0 0 0 0 0 0 0 0 0 0 0 0 0 0 0 0 0 0 0 0 0 0 0 0 0 0 0 0 0 0 0 0 0 0 0 0 0 0 0 0 0 0 0 0 0 0 0 0 0 0 0 0 0 0 0 0 0 0 0 0 0 0 0 0 0 0 0 0 0 0 0 0 0 0 0 0 0 0 0 0 0 0 0 0 0 0 0 0 0 0 0 0 0 0 0 0 0 0 0 0 0 0 0 0 0 0 0 0 0 0 0 0 0 0 0 0 0 0 0 0 0 0 0 0 0 0 0 0 0 0 0 0 0 0 0 0 0 0 0 0 0 0 0 0 0 0 0 0 0 0 0 0 0 0 0 0 0 0 0 0 0 0 0 0 0 0 0 0 0 0 0 0 0 0 0 0 0 0 0 0 0 0 0 0 0 0 0 0 0 0 0 0 0 0 0 0 0 0 0 0 0 0 0 0 0 0 0 0 0 0 0 0 0 0 0 0 0 0 0 0 0 0 0 0 0 0 0 0 0 0 0 0 0 0 0 0 0 0 0 0 0 0 0 0 0 0 0 0 0 0 0 0 0 0 0 0 0 0 0 0 0 0 0 0 0 0 0 0 0 0 0 0 0 0 0 0 0 0 0 0 0 0 0 0 0 0 0 0 0 0 0 0 0 0 0 0 0 0 0 0 0 0 0 0 0 0 0 0 0 0 0 0 0 0 0 0 0 0 0 0 0 0 0 0 0 0 0 0 0 0 0 0 0 0 0 0 0 0 0 0 0 0 0 0 0 0 0 0 0 0 0 0 0 0 0 0 0 0 0 0 0 0 0 0 0 0 0 0 0 0 0</float_array>
          <technique_common>
            <accessor source="#Plane013Mesh-mesh-map-1-array" count="1110" stride="2">
              <param name="S" type="float"/>
              <param name="T" type="float"/>
            </accessor>
          </technique_common>
        </source>
        <source id="Plane013Mesh-mesh-map-2">
          <float_array id="Plane013Mesh-mesh-map-2-array" count="2220">0 0 0 0 0 0 0 0 0 0 0 0 0 0 0 0 0 0 0 0 0 0 0 0 0 0 0 0 0 0 0 0 0 0 0 0 0 0 0 0 0 0 0 0 0 0 0 0 0 0 0 0 0 0 0 0 0 0 0 0 0 0 0 0 0 0 0 0 0 0 0 0 0 0 0 0 0 0 0 0 0 0 0 0 0 0 0 0 0 0 0 0 0 0 0 0 0 0 0 0 0 0 0 0 0 0 0 0 0 0 0 0 0 0 0 0 0 0 0 0 0 0 0 0 0 0 0 0 0 0 0 0 0 0 0 0 0 0 0 0 0 0 0 0 0 0 0 0 0 0 0 0 0 0 0 0 0 0 0 0 0 0 0 0 0 0 0 0 0 0 0 0 0 0 0 0 0 0 0 0 0 0 0 0 0 0 0 0 0 0 0 0 0 0 0 0 0 0 0 0 0 0 0 0 0 0 0 0 0 0 0 0 0 0 0 0 0 0 0 0 0 0 0 0 0 0 0 0 0 0 0 0 0 0 0 0 0 0 0 0 0 0 0 0 0 0 0 0 0 0 0 0 0 0 0 0 0 0 0 0 0 0 0 0 0 0 0 0 0 0 0 0 0 0 0 0 0 0 0 0 0 0 0 0 0 0 0 0 0 0 0 0 0 0 0 0 0 0 0 0 0 0 0 0 0 0 0 0 0 0 0 0 0 0 0 0 0 0 0 0 0 0 0 0 0 0 0 0 0 0 0 0 0 0 0 0 0 0 0 0 0 0 0 0 0 0 0 0 0 0 0 0 0 0 0 0 0 0 0 0 0 0 0 0 0 0 0 0 0 0 0 0 0 0 0 0 0 0 0 0 0 0 0 0 0 0 0 0 0 0 0 0 0 0 0 0 0 0 0 0 0 0 0 0 0 0 0 0 0 0 0 0 0 0 0 0 0 0 0 0 0 0 0 0 0 0 0 0 0 0 0 0 0 0 0 0 0 0 0 0 0 0 0 0 0 0 0 0 0 0 0 0 0 0 0 0 0 0 0 0 0 0 0 0 0 0 0 0 0 0 0 0 0 0 0 0 0 0 0 0 0 0 0 0 0 0 0 0 0 0 0 0 0 0 0 0 0 0 0 0 0 0 0 0 0 0 0 0 0 0 0 0 0 0 0 0 0 0 0 0 0 0 0 0 0 0 0 0 0 0 0 0 0 0 0 0 0 0 0 0 0 0 0 0 0 0 0 0 0 0 0 0 0 0 0 0 0 0 0 0 0 0 0 0 0 0 0 0 0 0 0 0 0 0 0 0 0 0 0 0 0 0 0 0 0 0 0 0 0 0 0 0 0 0 0 0 0 0 0 0 0 0 0 0 0 0 0 0 0 0 0 0 0 0 0 0 0 0 0 0 0 0 0 0 0 0 0 0 0 0 0 0 0 0 0 0 0 0 0 0 0 0 0 0 0 0 0 0 0 0 0 0 0 0 0 0 0 0 0 0 0 0 0 0 0 0 0 0 0 0 0 0 0 0 0 0 0 0 0 0 0 0 0 0 0 0 0 0 0 0 0 0 0 0 0 0 0 0 0 0 0 0 0 0 0 0 0 0 0 0 0 0 0 0 0 0 0 0 0 0 0 0 0 0 0 0 0 0 0 0 0 0 0 0 0 0 0 0 0 0 0 0 0 0 0 0 0 0 0 0 0 0 0 0 0 0 0 0 0 0 0 0 0 0 0 0 0 0 0 0 0 0 0 0 0 0 0 0 0 0 0 0 0 0 0 0 0 0 0 0 0 0 0 0 0 0 0 0 0 0 0 0 0 0 0 0 0 0 0 0 0 0 0 0 0 0 0 0 0 0 0 0 0 0 0 0 0 0 0 0 0 0 0 0 0 0 0 0 0 0 0 0 0 0 0 0 0 0 0 0 0 0 0 0 0 0 0 0 0 0 0 0 0 0 0 0 0 0 0 0 0 0 0 0 0 0 0 0 0 0 0 0 0 0 0 0 0 0 0 0 0 0 0 0 0 0 0 0 0 0 0 0 0 0 0 0 0 0 0 0 0 0 0 0 0 0 0 0 0 0 0 0 0 0 0 0 0 0 0 0 0 0 0 0 0 0 0 0 0 0 0 0 0 0 0 0 0 0 0 0 0 0 0 0 0 0 0 0 0 0 0 0 0 0 0 0 0 0 0 0 0 0 0 0 0 0 0 0 0 0 0 0 0 0 0 0 0 0 0 0 0 0 0 0 0 0 0 0 0 0 0 0 0 0 0 0 0 0 0 0 0 0 0 0 0 0 0 0 0 0 0 0 0 0 0 0 0 0 0 0 0 0 0 0 0 0 0 0 0 0 0 0 0 0 0 0 0 0 0 0 0 0 0 0 0 0 0 0 0 0 0 0 0 0 0 0 0 0 0 0 0 0 0 0 0 0 0 0 0 0 0 0 0 0 0 0 0 0 0 0 0 0 0 0 0 0 0 0 0 0 0 0 0 0 0 0 0 0 0 0 0 0 0 0 0 0 0 0 0 0 0 0 0 0 0 0 0 0 0 0 0 0 0 0 0 0 0 0 0 0 0 0 0 0 0 0 0 0 0 0 0 0 0 0 0 0 0 0 0 0 0 0 0 0 0 0 0 0 0 0 0 0 0 0 0 0 0 0 0 0 0 0 0 0 0 0 0 0 0 0 0 0 0 0 0 0 0 0 0 0 0 0 0 0 0 0 0 0 0 0 0 0 0 0 0 0 0 0 0 0 0 0 0 0 0 0 0 0 0 0 0 0 0 0 0 0 0 0 0 0 0 0 0 0 0 0 0 0 0 0 0 0 0 0 0 0 0 0 0 0 0 0 0 0 0 0 0 0 0 0 0 0 0 0 0 0 0 0 0 0 0 0 0 0 0 0 0 0 0 0 0 0 0 0 0 0 0 0 0 0 0 0 0 0 0 0 0 0 0 0 0 0 0 0 0 0 0 0 0 0 0 0 0 0 0 0 0 0 0 0 0 0 0 0 0 0 0 0 0 0 0 0 0 0 0 0 0 0 0 0 0 0 0 0 0 0 0 0 0 0 0 0 0 0 0 0 0 0 0 0 0 0 0 0 0 0 0 0 0 0 0 0 0 0 0 0 0 0 0 0 0 0 0 0 0 0 0 0 0 0 0 0 0 0 0 0 0 0 0 0 0 0 0 0 0 0 0 0 0 0 0 0 0 0 0 0 0 0 0 0 0 0 0 0 0 0 0 0 0 0 0 0 0 0 0 0 0 0 0 0 0 0 0 0 0 0 0 0 0 0 0 0 0 0 0 0 0 0 0 0 0 0 0 0 0 0 0 0 0 0 0 0 0 0 0 0 0 0 0 0 0 0 0 0 0 0 0 0 0 0 0 0 0 0 0 0 0 0 0 0 0 0 0 0 0 0 0 0 0 0 0 0 0 0 0 0 0 0 0 0 0 0 0 0 0 0 0 0 0 0 0 0 0 0 0 0 0 0 0 0 0 0 0 0 0 0 0 0 0 0 0 0 0 0 0 0 0 0 0 0 0 0 0 0 0 0 0 0 0 0 0 0 0 0 0 0 0 0 0 0 0 0 0 0 0 0 0 0 0 0 0 0 0 0 0 0 0 0 0 0 0 0 0 0 0 0 0 0 0 0 0 0 0 0 0 0 0 0 0 0 0 0 0 0 0 0 0 0 0 0 0 0 0 0 0 0 0 0 0 0 0 0 0 0 0 0 0 0 0 0 0 0 0 0 0 0 0 0 0 0 0 0 0 0 0 0 0 0 0 0 0 0 0 0 0 0 0 0 0 0 0 0 0 0 0 0 0 0 0 0 0 0 0 0 0 0 0 0 0 0 0 0 0 0 0 0 0 0 0 0 0 0 0 0 0 0 0 0 0 0 0 0 0 0 0 0 0 0 0 0 0 0 0 0 0 0 0 0 0 0 0 0 0 0 0 0 0 0 0 0 0 0 0 0 0 0 0 0 0 0 0 0 0 0 0 0 0 0 0 0 0 0 0 0 0 0 0 0 0 0 0 0 0 0 0 0 0 0 0 0 0 0 0 0 0 0 0 0 0 0 0 0 0 0 0 0 0 0 0 0 0 0 0 0 0 0 0 0 0 0 0 0 0 0 0 0 0 0 0 0 0 0 0 0 0 0 0 0 0 0 0 0 0 0 0 0 0 0 0 0 0 0 0 0 0 0 0 0 0 0 0 0 0 0 0 0 0 0 0 0 0 0 0 0 0 0 0 0 0 0 0 0 0 0 0 0 0 0 0 0 0 0 0 0 0 0 0 0 0 0 0 0 0 0 0 0 0 0 0 0 0 0 0 0 0 0 0 0 0 0 0 0 0 0 0 0 0 0 0 0 0 0 0 0 0 0 0 0 0 0 0 0 0 0 0 0 0 0 0 0 0 0 0 0 0 0 0 0 0 0 0 0 0 0 0 0 0 0 0 0 0 0 0 0 0 0 0 0 0 0 0 0 0 0 0 0 0 0 0 0 0 0 0 0 0 0 0 0 0 0 0 0 0 0 0 0 0 0 0 0 0 0 0 0 0 0 0 0 0 0 0 0 0 0 0 0 0 0 0 0 0 0 0 0 0 0 0 0 0 0 0 0 0 0 0 0 0 0 0 0 0 0 0 0 0 0 0 0 0 0 0 0 0 0 0 0 0 0 0 0 0 0 0 0 0 0 0 0 0 0 0 0 0 0 0 0 0 0 0 0 0 0 0 0 0 0 0 0 0 0 0 0 0 0 0 0 0 0 0 0 0 0 0 0 0 0 0 0 0 0 0 0 0 0 0 0 0 0 0 0 0 0 0 0 0 0 0 0 0 0 0 0 0 0 0 0 0 0 0 0 0 0 0 0 0 0 0 0 0 0 0 0 0 0 0 0 0 0 0 0 0 0 0 0 0 0 0 0 0 0 0 0 0 0 0 0 0 0 0 0 0 0 0 0 0 0 0 0 0 0 0 0 0 0 0 0 0 0 0 0</float_array>
          <technique_common>
            <accessor source="#Plane013Mesh-mesh-map-2-array" count="1110" stride="2">
              <param name="S" type="float"/>
              <param name="T" type="float"/>
            </accessor>
          </technique_common>
        </source>
        <source id="Plane013Mesh-mesh-map-3">
          <float_array id="Plane013Mesh-mesh-map-3-array" count="2220">0 0 0 0 0 0 0 0 0 0 0 0 0 0 0 0 0 0 0 0 0 0 0 0 0 0 0 0 0 0 0 0 0 0 0 0 0 0 0 0 0 0 0 0 0 0 0 0 0 0 0 0 0 0 0 0 0 0 0 0 0 0 0 0 0 0 0 0 0 0 0 0 0 0 0 0 0 0 0 0 0 0 0 0 0 0 0 0 0 0 0 0 0 0 0 0 0 0 0 0 0 0 0 0 0 0 0 0 0 0 0 0 0 0 0 0 0 0 0 0 0 0 0 0 0 0 0 0 0 0 0 0 0 0 0 0 0 0 0 0 0 0 0 0 0 0 0 0 0 0 0 0 0 0 0 0 0 0 0 0 0 0 0 0 0 0 0 0 0 0 0 0 0 0 0 0 0 0 0 0 0 0 0 0 0 0 0 0 0 0 0 0 0 0 0 0 0 0 0 0 0 0 0 0 0 0 0 0 0 0 0 0 0 0 0 0 0 0 0 0 0 0 0 0 0 0 0 0 0 0 0 0 0 0 0 0 0 0 0 0 0 0 0 0 0 0 0 0 0 0 0 0 0 0 0 0 0 0 0 0 0 0 0 0 0 0 0 0 0 0 0 0 0 0 0 0 0 0 0 0 0 0 0 0 0 0 0 0 0 0 0 0 0 0 0 0 0 0 0 0 0 0 0 0 0 0 0 0 0 0 0 0 0 0 0 0 0 0 0 0 0 0 0 0 0 0 0 0 0 0 0 0 0 0 0 0 0 0 0 0 0 0 0 0 0 0 0 0 0 0 0 0 0 0 0 0 0 0 0 0 0 0 0 0 0 0 0 0 0 0 0 0 0 0 0 0 0 0 0 0 0 0 0 0 0 0 0 0 0 0 0 0 0 0 0 0 0 0 0 0 0 0 0 0 0 0 0 0 0 0 0 0 0 0 0 0 0 0 0 0 0 0 0 0 0 0 0 0 0 0 0 0 0 0 0 0 0 0 0 0 0 0 0 0 0 0 0 0 0 0 0 0 0 0 0 0 0 0 0 0 0 0 0 0 0 0 0 0 0 0 0 0 0 0 0 0 0 0 0 0 0 0 0 0 0 0 0 0 0 0 0 0 0 0 0 0 0 0 0 0 0 0 0 0 0 0 0 0 0 0 0 0 0 0 0 0 0 0 0 0 0 0 0 0 0 0 0 0 0 0 0 0 0 0 0 0 0 0 0 0 0 0 0 0 0 0 0 0 0 0 0 0 0 0 0 0 0 0 0 0 0 0 0 0 0 0 0 0 0 0 0 0 0 0 0 0 0 0 0 0 0 0 0 0 0 0 0 0 0 0 0 0 0 0 0 0 0 0 0 0 0 0 0 0 0 0 0 0 0 0 0 0 0 0 0 0 0 0 0 0 0 0 0 0 0 0 0 0 0 0 0 0 0 0 0 0 0 0 0 0 0 0 0 0 0 0 0 0 0 0 0 0 0 0 0 0 0 0 0 0 0 0 0 0 0 0 0 0 0 0 0 0 0 0 0 0 0 0 0 0 0 0 0 0 0 0 0 0 0 0 0 0 0 0 0 0 0 0 0 0 0 0 0 0 0 0 0 0 0 0 0 0 0 0 0 0 0 0 0 0 0 0 0 0 0 0 0 0 0 0 0 0 0 0 0 0 0 0 0 0 0 0 0 0 0 0 0 0 0 0 0 0 0 0 0 0 0 0 0 0 0 0 0 0 0 0 0 0 0 0 0 0 0 0 0 0 0 0 0 0 0 0 0 0 0 0 0 0 0 0 0 0 0 0 0 0 0 0 0 0 0 0 0 0 0 0 0 0 0 0 0 0 0 0 0 0 0 0 0 0 0 0 0 0 0 0 0 0 0 0 0 0 0 0 0 0 0 0 0 0 0 0 0 0 0 0 0 0 0 0 0 0 0 0 0 0 0 0 0 0 0 0 0 0 0 0 0 0 0 0 0 0 0 0 0 0 0 0 0 0 0 0 0 0 0 0 0 0 0 0 0 0 0 0 0 0 0 0 0 0 0 0 0 0 0 0 0 0 0 0 0 0 0 0 0 0 0 0 0 0 0 0 0 0 0 0 0 0 0 0 0 0 0 0 0 0 0 0 0 0 0 0 0 0 0 0 0 0 0 0 0 0 0 0 0 0 0 0 0 0 0 0 0 0 0 0 0 0 0 0 0 0 0 0 0 0 0 0 0 0 0 0 0 0 0 0 0 0 0 0 0 0 0 0 0 0 0 0 0 0 0 0 0 0 0 0 0 0 0 0 0 0 0 0 0 0 0 0 0 0 0 0 0 0 0 0 0 0 0 0 0 0 0 0 0 0 0 0 0 0 0 0 0 0 0 0 0 0 0 0 0 0 0 0 0 0 0 0 0 0 0 0 0 0 0 0 0 0 0 0 0 0 0 0 0 0 0 0 0 0 0 0 0 0 0 0 0 0 0 0 0 0 0 0 0 0 0 0 0 0 0 0 0 0 0 0 0 0 0 0 0 0 0 0 0 0 0 0 0 0 0 0 0 0 0 0 0 0 0 0 0 0 0 0 0 0 0 0 0 0 0 0 0 0 0 0 0 0 0 0 0 0 0 0 0 0 0 0 0 0 0 0 0 0 0 0 0 0 0 0 0 0 0 0 0 0 0 0 0 0 0 0 0 0 0 0 0 0 0 0 0 0 0 0 0 0 0 0 0 0 0 0 0 0 0 0 0 0 0 0 0 0 0 0 0 0 0 0 0 0 0 0 0 0 0 0 0 0 0 0 0 0 0 0 0 0 0 0 0 0 0 0 0 0 0 0 0 0 0 0 0 0 0 0 0 0 0 0 0 0 0 0 0 0 0 0 0 0 0 0 0 0 0 0 0 0 0 0 0 0 0 0 0 0 0 0 0 0 0 0 0 0 0 0 0 0 0 0 0 0 0 0 0 0 0 0 0 0 0 0 0 0 0 0 0 0 0 0 0 0 0 0 0 0 0 0 0 0 0 0 0 0 0 0 0 0 0 0 0 0 0 0 0 0 0 0 0 0 0 0 0 0 0 0 0 0 0 0 0 0 0 0 0 0 0 0 0 0 0 0 0 0 0 0 0 0 0 0 0 0 0 0 0 0 0 0 0 0 0 0 0 0 0 0 0 0 0 0 0 0 0 0 0 0 0 0 0 0 0 0 0 0 0 0 0 0 0 0 0 0 0 0 0 0 0 0 0 0 0 0 0 0 0 0 0 0 0 0 0 0 0.5 0.125 0.5 0.1376566 0.375 0.25 0.375 0.25 0.5 0.3690544 0.5 0.375 0.5 0.625 0.5 0.6376567 0.375 0.75 0.375 0.75 0.5 0.8690543 0.5 0.875 0.375 0.5 0.125 0.75 0.125 0.5 0 0 0 0 0 0 0 0 0 0 0 0 0 0 0 0 0 0 0 0 0 0 0 0 0 0 0 0 0 0 0 0 0 0 0 0 0 0 0 0 0 0 0 0 0 0 0 0 0 0 0 0 0 0 0 0 0 0 0 0 0 0 0 0 0 0 0 0 0 0 0 0 0 0 0 0 0 0 0 0 0 0 0 0 0 0 0 0 0 0 0 0 0 0 0 0 0 0 0 0 0 0 0 0 0 0 0 0 0 0 0 0 0 0 0 0 0 0 0 0 0 0 0 0 0 0 0 0 0 0 0 0 0 0 0 0 0 0 0 0 0 0 0 0 0 0 0 0 0 0 0 0 0 0 0 0 0 0 0 0 0 0 0 0 0 0 0 0 0 0 0 0 0 0 0 0 0 0 0 0 0 0 0 0 0 0 0 0 0 0 0 0 0 0 0 0 0 0 0 0 0 0 0 0 0 0 0 0 0 0 0 0 0 0 0 0 0 0 0 0 0 0 0 0 0 0 0 0 0 0 0 0 0 0 0 0 0 0 0 0 0.5 0.2431563 0.5 0.25 0.375 0.25 0.375 0.25 0.375 0 0.5 0.125 0.375 0 0.5 0 0.5 0.006843626 0.375 0 0.5 0.006843626 0.5 0.01950031 0.5 0.2304997 0.5 0.2431563 0.375 0.25 0.5 0.217843 0.5 0.2304997 0.375 0.25 0.375 0 0.5 0.01950031 0.5 0.03215694 0.375 0 0.5 0.03215694 0.5 0.04587519 0.5 0.2041248 0.5 0.217843 0.375 0.25 0.5 0.1904065 0.5 0.2041248 0.375 0.25 0.375 0 0.5 0.04587519 0.5 0.05959349 0.375 0 0.5 0.05959349 0.5 0.07225012 0.5 0.1777498 0.5 0.1904065 0.375 0.25 0.5 0.1650931 0.5 0.1777498 0.375 0.25 0.375 0 0.5 0.07225012 0.5 0.08490675 0.375 0 0.5 0.08490675 0.5 0.09862506 0.5 0.1513749 0.5 0.1650931 0.375 0.25 0.5 0.1376566 0.5 0.1513749 0.375 0.25 0.375 0 0.5 0.09862506 0.5 0.1123433 0.375 0 0.5 0.1123433 0.5 0.125 0.5 0.4890537 0.5 0.5 0.375 0.5 0.375 0.5 0.375 0.25 0.5 0.375 0.375 0.25 0.5 0.25 0.5 0.2609463 0.375 0.25 0.5 0.2609463 0.5 0.2778114 0.5 0.4721885 0.5 0.4890537 0.375 0.5 0.5 0.466243 0.5 0.4721885 0.375 0.5 0.375 0.25 0.5 0.2778114 0.5 0.283757 0.375 0.25 0.5 0.283757 0.5 0.2897027 0.5 0.4602974 0.5 0.466243 0.375 0.5 0.5 0.4434323 0.5 0.4602974 0.375 0.5 0.375 0.25 0.5 0.2897027 0.5 0.3065678 0.375 0.25 0.5 0.3065678 0.5 0.3234329 0.5 0.4265671 0.5 0.4434323 0.375 0.5 0.5 0.4206215 0.5 0.4265671 0.375 0.5 0.375 0.25 0.5 0.3234329 0.5 0.3293785 0.375 0.25 0.5 0.3293785 0.5 0.3353241 0.5 0.4146759 0.5 0.4206215 0.375 0.5 0.5 0.3978108 0.5 0.4146759 0.375 0.5 0.375 0.25 0.5 0.3353241 0.5 0.3521893 0.375 0.25 0.5 0.3521893 0.5 0.3690544 0.5 0.3809456 0.5 0.3978108 0.375 0.5 0.5 0.375 0.5 0.3809456 0.375 0.5 0.5 0.7431564 0.5 0.75 0.375 0.75 0.375 0.75 0.375 0.5 0.5 0.625 0.375 0.5 0.5 0.5 0.5 0.5068436 0.375 0.5 0.5 0.5068436 0.5 0.5195003 0.5 0.7304998 0.5 0.7431564 0.375 0.75 0.5 0.7178431 0.5 0.7304998 0.375 0.75 0.375 0.5 0.5 0.5195003 0.5 0.532157 0.375 0.5 0.5 0.532157 0.5 0.5458753 0.5 0.7041248 0.5 0.7178431 0.375 0.75 0.5 0.6904065 0.5 0.7041248 0.375 0.75 0.375 0.5 0.5 0.5458753 0.5 0.5595935 0.375 0.5 0.5 0.5595935 0.5 0.5722502 0.5 0.6777498 0.5 0.6904065 0.375 0.75 0.5 0.6650932 0.5 0.6777498 0.375 0.75 0.375 0.5 0.5 0.5722502 0.5 0.5849068 0.375 0.5 0.5 0.5849068 0.5 0.5986251 0.5 0.6513749 0.5 0.6650932 0.375 0.75 0.5 0.6376567 0.5 0.6513749 0.375 0.75 0.375 0.5 0.5 0.5986251 0.5 0.6123433 0.375 0.5 0.5 0.6123433 0.5 0.625 0.5 0.9890537 0.5 1 0.375 1 0.375 1 0.375 0.75 0.5 0.875 0.375 0.75 0.5 0.75 0.5 0.7609462 0.375 0.75 0.5 0.7609462 0.5 0.7778113 0.5 0.9721885 0.5 0.9890537 0.375 1 0.5 0.966243 0.5 0.9721885 0.375 1 0.375 0.75 0.5 0.7778113 0.5 0.783757 0.375 0.75 0.5 0.783757 0.5 0.7897028 0.5 0.9602974 0.5 0.966243 0.375 1 0.5 0.9434323 0.5 0.9602974 0.375 1 0.375 0.75 0.5 0.7897028 0.5 0.8065679 0.375 0.75 0.5 0.8065679 0.5 0.8234329 0.5 0.9265671 0.5 0.9434323 0.375 1 0.5 0.9206215 0.5 0.9265671 0.375 1 0.375 0.75 0.5 0.8234329 0.5 0.8293785 0.375 0.75 0.5 0.8293785 0.5 0.8353241 0.5 0.914676 0.5 0.9206215 0.375 1 0.5 0.8978108 0.5 0.914676 0.375 1 0.375 0.75 0.5 0.8353241 0.5 0.8521892 0.375 0.75 0.5 0.8521892 0.5 0.8690543 0.5 0.8809457 0.5 0.8978108 0.375 1 0.5 0.875 0.5 0.8809457 0.375 1 0.375 0.5 0.375 0.75 0.125 0.75</float_array>
          <technique_common>
            <accessor source="#Plane013Mesh-mesh-map-3-array" count="1110" stride="2">
              <param name="S" type="float"/>
              <param name="T" type="float"/>
            </accessor>
          </technique_common>
        </source>
        <vertices id="Plane013Mesh-mesh-vertices">
          <input semantic="POSITION" source="#Plane013Mesh-mesh-positions"/>
        </vertices>
        <triangles count="370">
          <input semantic="VERTEX" source="#Plane013Mesh-mesh-vertices" offset="0"/>
          <input semantic="NORMAL" source="#Plane013Mesh-mesh-normals" offset="1"/>
          <input semantic="TEXCOORD" source="#Plane013Mesh-mesh-map-0" offset="2" set="0"/>
          <input semantic="TEXCOORD" source="#Plane013Mesh-mesh-map-1" offset="2" set="1"/>
          <input semantic="TEXCOORD" source="#Plane013Mesh-mesh-map-2" offset="2" set="2"/>
          <input semantic="TEXCOORD" source="#Plane013Mesh-mesh-map-3" offset="2" set="3"/>
          <p>29 0 0 30 0 1 79 0 2 30 0 3 31 0 4 79 0 5 31 0 6 32 0 7 79 0 8 32 0 9 29 0 10 79 0 11 33 0 12 34 0 13 80 0 14 34 0 15 35 0 16 80 0 17 35 0 18 31 0 19 80 0 20 31 0 21 33 0 22 80 0 23 36 0 24 37 0 25 81 0 26 37 0 27 38 0 28 81 0 29 38 0 30 35 0 31 81 0 32 35 0 33 36 0 34 81 0 35 39 0 36 40 0 37 82 0 38 40 0 39 32 0 40 82 0 41 32 0 42 38 0 43 82 0 44 38 0 45 39 0 46 82 0 47 41 0 48 36 0 49 83 0 50 36 0 51 42 0 52 83 0 53 83 0 54 103 0 55 104 0 56 83 0 57 105 0 58 41 0 59 34 0 60 43 0 61 84 0 62 84 0 63 106 0 64 107 0 65 84 0 66 108 0 67 42 0 68 42 0 69 34 0 70 84 0 71 109 0 72 41 0 73 110 0 74 112 0 75 110 0 76 41 0 77 113 0 78 39 0 79 114 0 80 114 0 81 39 0 82 115 0 83 117 0 84 37 0 85 116 0 86 118 0 87 37 0 88 117 0 89 44 0 90 29 0 91 85 0 92 29 0 93 45 0 94 85 0 95 45 0 96 46 0 97 85 0 98 46 0 99 44 0 100 85 0 101 40 0 102 47 0 103 86 0 104 47 0 105 48 0 106 86 0 107 48 0 108 45 0 109 86 0 110 45 0 111 40 0 112 86 0 113 49 0 114 50 0 115 87 0 116 50 0 117 51 0 118 87 0 119 51 0 120 48 0 121 87 0 122 48 0 123 49 0 124 87 0 125 52 0 126 53 0 127 88 0 128 53 0 129 46 0 130 88 0 131 46 0 132 51 0 133 88 0 134 51 0 135 52 0 136 88 0 137 119 0 138 49 0 139 120 0 140 120 0 141 49 0 142 121 0 143 123 0 144 47 0 145 122 0 146 124 0 147 47 0 148 123 0 149 126 0 150 54 0 151 125 0 152 126 0 153 127 0 154 54 0 155 55 0 156 52 0 157 89 0 158 52 0 159 56 0 160 89 0 161 130 0 162 89 0 163 56 0 164 89 0 165 131 0 166 55 0 167 50 0 168 54 0 169 90 0 170 133 0 171 90 0 172 54 0 173 90 0 174 134 0 175 56 0 176 56 0 177 50 0 178 90 0 179 57 0 180 44 0 181 91 0 182 44 0 183 58 0 184 91 0 185 58 0 186 59 0 187 91 0 188 59 0 189 57 0 190 91 0 191 53 0 192 60 0 193 92 0 194 60 0 195 61 0 196 92 0 197 61 0 198 58 0 199 92 0 200 58 0 201 53 0 202 92 0 203 62 0 204 63 0 205 93 0 206 63 0 207 64 0 208 93 0 209 64 0 210 61 0 211 93 0 212 61 0 213 62 0 214 93 0 215 65 0 216 66 0 217 94 0 218 66 0 219 59 0 220 94 0 221 59 0 222 64 0 223 94 0 224 64 0 225 65 0 226 94 0 227 67 0 228 62 0 229 95 0 230 62 0 231 68 0 232 95 0 233 136 0 234 95 0 235 68 0 236 95 0 237 137 0 238 67 0 239 60 0 240 55 0 241 96 0 242 139 0 243 96 0 244 55 0 245 96 0 246 140 0 247 68 0 248 68 0 249 60 0 250 96 0 251 67 0 252 141 0 253 142 0 254 144 0 255 141 0 256 67 0 257 65 0 258 145 0 259 146 0 260 145 0 261 65 0 262 147 0 263 149 0 264 63 0 265 148 0 266 63 0 267 149 0 268 150 0 269 30 0 270 57 0 271 97 0 272 57 0 273 69 0 274 97 0 275 69 0 276 70 0 277 97 0 278 70 0 279 30 0 280 97 0 281 66 0 282 71 0 283 98 0 284 71 0 285 72 0 286 98 0 287 72 0 288 69 0 289 98 0 290 69 0 291 66 0 292 98 0 293 73 0 294 74 0 295 99 0 296 74 0 297 75 0 298 99 0 299 75 0 300 72 0 301 99 0 302 72 0 303 73 0 304 99 0 305 76 0 306 33 0 307 100 0 308 33 0 309 70 0 310 100 0 311 70 0 312 75 0 313 100 0 314 75 0 315 76 0 316 100 0 317 73 0 318 151 0 319 152 0 320 151 0 321 73 0 322 153 0 323 155 0 324 71 0 325 154 0 326 71 0 327 155 0 328 156 0 329 158 0 330 77 0 331 157 0 332 158 0 333 159 0 334 77 0 335 43 0 336 76 0 337 101 0 338 76 0 339 78 0 340 101 0 341 101 0 342 161 0 343 162 0 344 101 0 345 163 0 346 43 0 347 74 0 348 77 0 349 102 0 350 102 0 351 164 0 352 165 0 353 102 0 354 166 0 355 78 0 356 78 0 357 74 0 358 102 0 359 29 0 360 2 0 361 30 0 362 30 0 363 14 0 364 31 0 365 31 0 366 25 0 367 32 0 368 32 0 369 13 0 370 29 0 371 33 0 372 6 0 373 34 0 374 34 0 375 15 0 376 35 0 377 35 0 378 25 0 379 31 0 380 31 0 381 14 0 382 33 0 383 36 0 384 9 0 385 37 0 386 37 0 387 16 0 388 38 0 389 38 0 390 25 0 391 35 0 392 35 0 393 15 0 394 36 0 395 39 0 396 5 0 397 40 0 398 40 0 399 13 0 400 32 0 401 32 0 402 25 0 403 38 0 404 38 0 405 16 0 406 39 0 407 41 0 408 9 0 409 36 0 410 36 0 411 15 0 412 42 0 413 167 0 414 103 0 415 42 0 416 105 0 417 168 0 418 41 0 419 34 0 420 6 0 421 43 0 422 169 0 423 106 0 424 43 0 425 108 0 426 167 0 427 42 0 428 42 0 429 15 0 430 34 0 431 9 0 432 109 0 433 170 0 434 168 0 435 112 0 436 41 0 437 5 0 438 113 0 439 171 0 440 16 0 441 115 0 442 39 0 443 9 0 444 116 0 445 37 0 446 16 0 447 118 0 448 172 0 449 44 0 450 2 0 451 29 0 452 29 0 453 13 0 454 45 0 455 45 0 456 26 0 457 46 0 458 46 0 459 17 0 460 44 0 461 40 0 462 5 0 463 47 0 464 47 0 465 18 0 466 48 0 467 48 0 468 26 0 469 45 0 470 45 0 471 13 0 472 40 0 473 49 0 474 10 0 475 50 0 476 50 0 477 19 0 478 51 0 479 51 0 480 26 0 481 48 0 482 48 0 483 18 0 484 49 0 485 52 0 486 7 0 487 53 0 488 53 0 489 17 0 490 46 0 491 46 0 492 26 0 493 51 0 494 51 0 495 19 0 496 52 0 497 10 0 498 119 0 499 173 0 500 18 0 501 121 0 502 49 0 503 5 0 504 122 0 505 47 0 506 18 0 507 124 0 508 174 0 509 10 0 510 125 0 511 54 0 512 54 0 513 127 0 514 175 0 515 55 0 516 7 0 517 52 0 518 52 0 519 19 0 520 56 0 521 56 0 522 176 0 523 130 0 524 55 0 525 131 0 526 177 0 527 50 0 528 10 0 529 54 0 530 54 0 531 175 0 532 133 0 533 56 0 534 134 0 535 176 0 536 56 0 537 19 0 538 50 0 539 57 0 540 2 0 541 44 0 542 44 0 543 17 0 544 58 0 545 58 0 546 27 0 547 59 0 548 59 0 549 20 0 550 57 0 551 53 0 552 7 0 553 60 0 554 60 0 555 21 0 556 61 0 557 61 0 558 27 0 559 58 0 560 58 0 561 17 0 562 53 0 563 62 0 564 11 0 565 63 0 566 63 0 567 22 0 568 64 0 569 64 0 570 27 0 571 61 0 572 61 0 573 21 0 574 62 0 575 65 0 576 8 0 577 66 0 578 66 0 579 20 0 580 59 0 581 59 0 582 27 0 583 64 0 584 64 0 585 22 0 586 65 0 587 67 0 588 11 0 589 62 0 590 62 0 591 21 0 592 68 0 593 68 0 594 178 0 595 136 0 596 67 0 597 137 0 598 179 0 599 60 0 600 7 0 601 55 0 602 55 0 603 177 0 604 139 0 605 68 0 606 140 0 607 178 0 608 68 0 609 21 0 610 60 0 611 11 0 612 142 0 613 180 0 614 67 0 615 179 0 616 144 0 617 8 0 618 146 0 619 181 0 620 147 0 621 22 0 622 182 0 623 148 0 624 11 0 625 180 0 626 22 0 627 150 0 628 182 0 629 30 0 630 2 0 631 57 0 632 57 0 633 20 0 634 69 0 635 69 0 636 28 0 637 70 0 638 70 0 639 14 0 640 30 0 641 66 0 642 8 0 643 71 0 644 71 0 645 23 0 646 72 0 647 72 0 648 28 0 649 69 0 650 69 0 651 20 0 652 66 0 653 73 0 654 12 0 655 74 0 656 74 0 657 24 0 658 75 0 659 75 0 660 28 0 661 72 0 662 72 0 663 23 0 664 73 0 665 76 0 666 6 0 667 33 0 668 33 0 669 14 0 670 70 0 671 70 0 672 28 0 673 75 0 674 75 0 675 24 0 676 76 0 677 12 0 678 152 0 679 183 0 680 153 0 681 23 0 682 184 0 683 154 0 684 8 0 685 181 0 686 23 0 687 156 0 688 184 0 689 157 0 690 12 0 691 183 0 692 159 0 693 185 0 694 77 0 695 43 0 696 6 0 697 76 0 698 76 0 699 24 0 700 78 0 701 186 0 702 161 0 703 78 0 704 163 0 705 169 0 706 43 0 707 74 0 708 12 0 709 77 0 710 185 0 711 164 0 712 77 0 713 166 0 714 186 0 715 78 0 716 78 0 717 24 0 718 74 0 719 169 1 720 163 1 721 1 1 722 1 2 723 154 2 724 181 2 725 177 3 726 131 3 727 3 3 728 3 4 729 122 4 730 171 4 731 4 5 732 0 5 733 1 5 734 83 0 735 42 0 736 103 0 737 83 0 738 104 0 739 105 0 740 84 0 741 43 0 742 106 0 743 84 0 744 107 0 745 108 0 746 112 0 747 111 0 748 110 0 749 126 0 750 128 0 751 127 0 752 130 0 753 129 0 754 89 0 755 89 0 756 129 0 757 131 0 758 133 0 759 132 0 760 90 0 761 90 0 762 132 0 763 134 0 764 136 0 765 135 0 766 95 0 767 95 0 768 135 0 769 137 0 770 139 0 771 138 0 772 96 0 773 96 0 774 138 0 775 140 0 776 144 0 777 143 0 778 141 0 779 158 0 780 160 0 781 159 0 782 101 0 783 78 0 784 161 0 785 101 0 786 162 0 787 163 0 788 102 0 789 77 0 790 164 0 791 102 0 792 165 0 793 166 0 794 9 0 795 41 0 796 109 0 797 5 0 798 39 0 799 113 0 800 16 0 801 172 0 802 115 0 803 9 0 804 170 0 805 116 0 806 16 0 807 37 0 808 118 0 809 10 0 810 49 0 811 119 0 812 18 0 813 174 0 814 121 0 815 5 0 816 171 0 817 122 0 818 18 0 819 47 0 820 124 0 821 10 0 822 173 0 823 125 0 824 11 0 825 67 0 826 142 0 827 8 0 828 65 0 829 146 0 830 147 0 831 65 0 832 22 0 833 148 0 834 63 0 835 11 0 836 22 0 837 63 0 838 150 0 839 12 0 840 73 0 841 152 0 842 153 0 843 73 0 844 23 0 845 154 0 846 71 0 847 8 0 848 23 0 849 71 0 850 156 0 851 157 0 852 77 0 853 12 0 854 159 1 855 160 1 856 1 1 857 1 1 858 0 1 859 169 1 860 0 1 861 111 1 862 112 1 863 0 1 864 112 1 865 168 1 866 185 1 867 159 1 868 1 1 869 164 1 870 185 1 871 1 1 872 0 1 873 168 1 874 105 1 875 0 1 876 105 1 877 104 1 878 165 1 879 164 1 880 1 1 881 166 1 882 165 1 883 1 1 884 0 1 885 104 1 886 103 1 887 0 1 888 103 1 889 167 1 890 186 1 891 166 1 892 1 1 893 161 1 894 186 1 895 1 1 896 0 1 897 167 1 898 108 1 899 0 1 900 108 1 901 107 1 902 162 1 903 161 1 904 1 1 905 163 1 906 162 1 907 1 1 908 0 1 909 107 1 910 106 1 911 0 1 912 106 1 913 169 1 914 141 6 915 143 6 916 4 6 917 4 6 918 1 6 919 181 6 920 1 6 921 160 6 922 158 6 923 1 6 924 158 6 925 157 6 926 142 6 927 141 6 928 4 6 929 180 6 930 142 6 931 4 6 932 1 7 933 157 7 934 183 7 935 1 8 936 183 8 937 152 8 938 148 6 939 180 6 940 4 6 941 149 9 942 148 9 943 4 9 944 1 9 945 152 9 946 151 9 947 1 6 948 151 6 949 153 6 950 150 6 951 149 6 952 4 6 953 182 10 954 150 10 955 4 10 956 1 11 957 153 11 958 184 11 959 1 12 960 184 12 961 156 12 962 147 6 963 182 6 964 4 6 965 145 6 966 147 6 967 4 6 968 1 6 969 156 6 970 155 6 971 1 6 972 155 6 973 154 6 974 146 6 975 145 6 976 4 6 977 181 6 978 146 6 979 4 6 980 127 3 981 128 3 982 3 3 983 3 3 984 4 3 985 177 3 986 4 3 987 143 3 988 144 3 989 4 3 990 144 3 991 179 3 992 175 3 993 127 3 994 3 3 995 133 3 996 175 3 997 3 3 998 4 3 999 179 3 1000 137 3 1001 4 3 1002 137 3 1003 135 3 1004 132 3 1005 133 3 1006 3 3 1007 134 3 1008 132 3 1009 3 3 1010 4 3 1011 135 3 1012 136 3 1013 4 3 1014 136 3 1015 178 3 1016 176 3 1017 134 3 1018 3 3 1019 130 3 1020 176 3 1021 3 3 1022 4 3 1023 178 3 1024 140 3 1025 4 3 1026 140 3 1027 138 3 1028 129 3 1029 130 3 1030 3 3 1031 131 3 1032 129 3 1033 3 3 1034 4 3 1035 138 3 1036 139 3 1037 4 3 1038 139 3 1039 177 3 1040 110 13 1041 111 13 1042 0 13 1043 0 13 1044 3 13 1045 171 13 1046 3 13 1047 128 13 1048 126 13 1049 3 13 1050 126 13 1051 125 13 1052 109 13 1053 110 13 1054 0 13 1055 170 13 1056 109 13 1057 0 13 1058 3 14 1059 125 14 1060 173 14 1061 3 15 1062 173 15 1063 119 15 1064 116 13 1065 170 13 1066 0 13 1067 117 16 1068 116 16 1069 0 16 1070 3 16 1071 119 16 1072 120 16 1073 3 13 1074 120 13 1075 121 13 1076 118 13 1077 117 13 1078 0 13 1079 172 17 1080 118 17 1081 0 17 1082 3 18 1083 121 18 1084 174 18 1085 3 19 1086 174 19 1087 124 19 1088 115 13 1089 172 13 1090 0 13 1091 114 13 1092 115 13 1093 0 13 1094 3 13 1095 124 13 1096 123 13 1097 3 13 1098 123 13 1099 122 13 1100 113 13 1101 114 13 1102 0 13 1103 171 13 1104 113 13 1105 0 13 1106 4 5 1107 3 5 1108 0 5 1109</p>
        </triangles>
      </mesh>
    </geometry>
  </library_geometries>
  <library_visual_scenes>
    <visual_scene id="Scene" name="Scene">
      <node id="Plane013" name="Plane013" type="NODE">
        <matrix sid="transform">1 0 0 0 0 1 0 0 0 0 1 0 0 0 0 1</matrix>
        <instance_geometry url="#Plane013Mesh-mesh" name="Plane013"/>
      </node>
    </visual_scene>
  </library_visual_scenes>
  <scene>
    <instance_visual_scene url="#Scene"/>
  </scene>
</COLLADA>